<svg width="1366" height="1366" viewBox="0 0 1366 1366" fill="none" xmlns="http://www.w3.org/2000/svg">
<path d="M1137.33 139.733C1095.73 276.8 1045.2 408 986.133 532.133C954.399 598.667 931.199 636.133 895.066 679.6C881.999 695.333 851.599 725.6 835.999 738.667C793.466 773.867 743.599 799.2 700.666 807.467C681.999 810.933 657.333 810.4 640.799 806.133C601.866 796 570.533 768 555.866 730.133C543.466 697.867 541.466 657.467 549.466 600C557.866 539.733 583.466 408.533 604.799 316C618.666 256 652.666 124.4 655.333 120C655.866 119.067 503.466 117.333 466.933 117.733L447.866 118L236.666 575.2C120.399 826.8 25.5992 1032.67 25.7326 1032.67C25.8659 1032.8 67.9992 1033.6 119.199 1034.4C192.399 1035.6 212.666 1035.6 213.466 1034.4C214.133 1033.47 251.599 950.4 296.933 849.6L379.333 666.533L380.266 692.933C381.866 744.133 390.799 784 408.666 820.8C440.133 885.733 497.866 927.867 573.999 941.467C589.333 944.267 595.466 944.667 625.999 944.533C655.066 944.533 663.733 944 679.999 941.6C756.399 929.733 829.866 902.133 887.999 863.333C913.199 846.533 925.066 836.533 950.533 811.067C965.333 796.133 973.466 788.933 972.933 790.933C965.866 820 952.799 898.667 949.066 934.667C946.399 960.267 946.799 1032.27 949.733 1054C961.599 1142.67 995.199 1213.87 1053.33 1273.73L1070.13 1291.07L1149.33 1246.67C1192.93 1222.27 1229.2 1201.87 1229.87 1201.2C1230.53 1200.67 1226.53 1198 1221.2 1195.33C1182.27 1175.73 1144.8 1140.8 1121.47 1102.27C1083.73 1039.73 1073.6 962.933 1090.8 870C1097.33 834.8 1107.6 798 1133.47 716.667C1193.33 528.933 1267.33 312 1329.73 141.333L1338.4 118L1296.13 117.067C1272.93 116.667 1229.33 116.267 1199.33 116.267H1144.53L1137.33 139.733Z" fill="#5151CD"/>
</svg>
