<svg width="1418" height="1418" viewBox="0 0 1418 1418" fill="none" xmlns="http://www.w3.org/2000/svg">
<path d="M55 1074L495 121.5H680L251.5 1074H55Z" fill="#2E2E9E"/>
<path d="M1004.65 796.167C1004.65 796.167 984.519 903.9 980.784 939.9C978.12 965.5 978.519 1037.5 981.452 1059.23C993.319 1147.9 1026.92 1219.1 1085.05 1278.97L1101.85 1296.3L1181.05 1251.9C1224.65 1227.5 1260.92 1207.1 1261.58 1206.43C1262.25 1205.9 1258.25 1203.23 1252.92 1200.57C1213.99 1180.97 1176.52 1146.03 1153.19 1107.5C1115.45 1044.97 1105.32 968.167 1122.52 875.233C1129.05 840.034 1139.32 803.233 1165.19 721.9C1225.05 534.167 1298.1 317.167 1360.5 146.5L1369.5 121H1328.5H1230.5H1201L1193.5 146.567L1157.5 267L1004.65 796.167Z" fill="#2E2E9E"/>
<path d="M682.002 121.5H507.508C507.508 121.5 371.492 526 391.502 737.5C408.105 913 511.972 981.5 642.987 981.5C774.002 981.5 937.002 920.5 1039 779.5C1210.52 576 1346.5 121 1346.5 121H1191.5C1191.5 121 1080.31 491.5 947.5 666.5C820 834.5 700.002 840.969 642.987 830.5C585.972 820.031 544.002 789.5 544.002 666.5C544.002 477.492 682.002 121.5 682.002 121.5Z" fill="#5151CD"/>
</svg>
