<svg width="83" height="83" viewBox="0 0 83 83" fill="none" xmlns="http://www.w3.org/2000/svg">
<rect y="21.8893" width="64" height="64" rx="20" transform="rotate(-20 0 21.8893)" fill="#9B9EF0"/>
<rect x="9.01367" y="9.01489" width="64" height="64" rx="20" fill="#5151CD"/>
<path d="M41.013 54.3482C48.3768 54.3482 54.3464 48.3787 54.3464 41.0149C54.3464 33.6511 48.3768 27.6816 41.013 27.6816C33.6492 27.6816 27.6797 33.6511 27.6797 41.0149C27.6797 48.3787 33.6492 54.3482 41.013 54.3482Z" stroke="#FCFCFD" stroke-width="2.66667" stroke-linecap="round" stroke-linejoin="round"/>
<path d="M41.0137 49.0149C45.432 49.0149 49.0137 45.4332 49.0137 41.0149C49.0137 36.5966 45.432 33.0149 41.0137 33.0149C36.5954 33.0149 33.0137 36.5966 33.0137 41.0149C33.0137 45.4332 36.5954 49.0149 41.0137 49.0149Z" stroke="#FCFCFD" stroke-width="2.66667" stroke-linecap="round" stroke-linejoin="round"/>
<path d="M41.0143 43.6815C42.4871 43.6815 43.681 42.4876 43.681 41.0149C43.681 39.5421 42.4871 38.3482 41.0143 38.3482C39.5416 38.3482 38.3477 39.5421 38.3477 41.0149C38.3477 42.4876 39.5416 43.6815 41.0143 43.6815Z" stroke="#FCFCFD" stroke-width="2.66667" stroke-linecap="round" stroke-linejoin="round"/>
</svg>
