<?xml version="1.0" encoding="UTF-8" standalone="no"?>
<svg
   xmlns:dc="http://purl.org/dc/elements/1.1/"
   xmlns:cc="http://creativecommons.org/ns#"
   xmlns:rdf="http://www.w3.org/1999/02/22-rdf-syntax-ns#"
   xmlns:svg="http://www.w3.org/2000/svg"
   xmlns="http://www.w3.org/2000/svg"
   xmlns:sodipodi="http://sodipodi.sourceforge.net/DTD/sodipodi-0.dtd"
   xmlns:inkscape="http://www.inkscape.org/namespaces/inkscape"
   inkscape:version="1.0 (4035a4f, 2020-05-01)"
   sodipodi:docname="Berkeley_logo.svg"
   id="svg54"
   version="1.1"
   fill="none"
   viewBox="0 0 140 45"
   height="45"
   width="140">
  <metadata
     id="metadata58">
    <rdf:RDF>
      <cc:Work
         rdf:about="">
        <dc:format>image/svg+xml</dc:format>
        <dc:type
           rdf:resource="http://purl.org/dc/dcmitype/StillImage" />
        <dc:title></dc:title>
      </cc:Work>
    </rdf:RDF>
  </metadata>
  <sodipodi:namedview
     inkscape:current-layer="svg54"
     inkscape:window-maximized="0"
     inkscape:window-y="46"
     inkscape:window-x="1764"
     inkscape:cy="30"
     inkscape:cx="70"
     inkscape:zoom="7.9571429"
     showgrid="false"
     id="namedview56"
     inkscape:window-height="827"
     inkscape:window-width="1307"
     inkscape:pageshadow="2"
     inkscape:pageopacity="0"
     guidetolerance="10"
     gridtolerance="10"
     objecttolerance="10"
     borderopacity="1"
     bordercolor="#666666"
     pagecolor="#ffffff" />
  <g
     transform="translate(0,-8)"
     id="g47"
     clip-path="url(#clip0_5248_27970)">
    <path
       id="path45"
       fill="#889caa"
       d="m 15.4479,9.75572 c -4.4864,0 -6.87931,0.29698 -7.92654,0.29698 -1.74484,0 -3.29018,-0.0497 -4.83616,-0.0497 -0.84717,0 -0.99672,0.0498 -0.99672,0.3957 0,0.5928 0.19916,0.643 2.44319,0.643 1.39523,0 2.1938,0.445 2.1938,4.3506 v 22.7425 c 0,0.7416 -0.10035,0.8406 -2.34352,0.8406 -1.09694,0 -1.39635,0.0982 -1.39635,0.5933 0,0.4942 0.34906,0.5435 0.84821,0.5435 1.5949,0 2.69183,-0.1975 4.78548,-0.1975 2.19351,0 4.28761,0.4939 6.38171,0.4939 6.9301,0 11.5668,-2.6196 11.5668,-8.1571 0,-4.3012 -2.9423,-5.9826 -5.2854,-7.1698 -0.9971,-0.4942 -1.9445,-0.7413 -1.9445,-0.8399 0,-0.1479 1.097,-0.6921 2.0448,-1.335 1.5957,-1.0875 3.7393,-2.8187 3.7393,-6.3287 0,-3.5103 -2.792,-6.82238 -9.2741,-6.82238 z M 100.87,9.81227 c -0.26,0 -1.9081,0.73103 -5.2904,0.94613 -0.7369,0.0429 -1.0844,-5e-4 -1.0844,0.5156 0,0.4736 0.4341,0.5598 1.2147,0.5598 1.9509,0 2.2113,-2e-4 2.2113,2.7085 v 23.6945 c 0,0.7741 -0.7375,0.7312 -2.5152,0.7312 -1.0412,0 -1.0843,0.2587 -1.0843,0.5597 0,0.3439 0.0865,0.4299 1.0843,0.4299 0.607,0 2.9057,-0.0857 4.3796,-0.0857 0.7814,0 1.7354,0.0857 2.3854,0.0857 1.561,0 1.864,-10e-5 1.864,-0.4299 0,-0.3447 0.087,-0.6026 -2.081,-0.6026 -0.781,0 -1.084,-0.473 -1.084,-4.0418 0,-1.2477 0.217,-4.6443 0.217,-21.0289 0,-1.2898 0.216,-2.8387 0.216,-3.3548 0,-0.4731 -0.217,-0.68733 -0.433,-0.68733 z M 64.8689,9.85512 c -0.3905,0 -2.9493,0.94558 -6.0709,0.94558 -0.4772,0 -0.5639,0.1722 -0.5639,0.602 0,0.3018 0.1735,0.4311 1.9508,0.4311 1.1707,0 1.5179,0.3871 1.5179,3.4399 0,9.074 -0.1303,21.8026 -0.1303,23.0495 0,0.6449 -0.3901,0.6448 -1.8643,0.6448 -1.0408,0 -1.2573,0.215 -1.2573,0.5598 0,0.3868 0.2602,0.4299 1.2573,0.4299 0.607,0 2.2117,-0.0858 3.6867,-0.0858 1.3876,0 3.3815,0.0858 4.0318,0.0858 0.9538,0 1.1709,-1e-4 1.1709,-0.4299 0,-0.3448 -0.1733,-0.5598 -1.1709,-0.5598 -2.6882,0 -2.601,3e-4 -2.601,-2.0202 v -2.7093 c 0,-0.3872 0.6069,-0.6886 1.3005,-1.1188 0.7369,-0.4731 1.3437,-0.9027 1.5173,-0.9027 0.2602,0 2.0824,2.7097 3.9034,4.7736 1.8211,2.064 2.2116,3.1391 2.9926,3.1391 0.607,0 1.9077,-0.0428 2.4281,-0.0428 0.3901,0 0.9536,0.0428 1.474,0.0428 0.9538,0 1.2574,-0.086 1.2574,-0.387 0,-0.3439 -0.3466,-0.5598 -1.387,-0.5598 -1.4742,0 -2.8619,-2.1067 -4.337,-3.8697 -3.035,-3.6125 -3.8151,-4.4292 -3.8151,-4.8165 0,-0.301 2.6883,-2.1926 4.8569,-4.3002 1.3439,-1.2898 2.8178,-3.1386 2.8178,-3.5262 0,-0.1292 -0.1731,-0.1721 -0.5199,-0.1721 -0.52,0 -3.036,0.1286 -3.5997,0.1286 -0.5204,0 -1.3438,-0.1286 -1.7772,-0.1286 -0.5637,0 -0.7806,0.0858 -0.7806,0.4305 0,0.3873 0.2167,0.4728 0.867,0.4728 1.9076,0 2.0379,0.0862 2.0379,0.7741 0,0.9029 -0.3904,1.6341 -2.0811,3.2249 -1.3876,1.2906 -5.8983,5.2464 -6.9824,5.2464 -0.1299,0 -0.1729,-0.1291 -0.1729,-0.3013 0,-7.0092 0.2593,-11.8253 0.2593,-18.3618 0,-1.3761 0.0871,-3.1832 0.0871,-3.7418 0,-0.25805 -0.0867,-0.38688 -0.3032,-0.38688 z M 13.9516,10.9423 c 4.537,0 6.631,4.7466 6.631,7.2189 0,3.9056 -1.6452,4.845 -3.0909,5.9328 0,0 -2.0944,-0.2969 -5.1351,-0.2969 -1.1971,0 -1.8449,0.0985 -1.8449,-0.6927 v -10.728 c 0,-0.9888 0.1499,-1.4341 3.4399,-1.4341 z m 21.8635,11.1256 c -3.9459,0 -8.0659,3.6125 -8.0659,9.6759 0,7.1814 5.2907,8.9022 8.8461,8.9022 3.5126,0 7.1986,-2.7101 7.1986,-2.9248 0,-0.0863 -0.1302,-0.3442 -0.3471,-0.3442 -0.2598,0 -1.8208,1.0325 -4.6827,1.0325 -3.296,0 -7.9364,-1.5913 -7.9364,-7.5258 0,-0.9888 0.1306,-1.2039 0.825,-1.2469 4.9426,-0.3009 9.2791,-1.2464 10.4065,-1.5053 1.1715,-0.258 1.7785,-0.4298 1.7785,-0.6019 0,-0.344 -0.6943,-1.3763 -1.432,-2.2359 -1.5608,-1.8063 -4.3353,-3.2258 -6.5906,-3.2258 z m 50.5629,0 c -3.9456,0 -8.0659,3.6125 -8.0659,9.6759 0,7.1814 5.2903,8.9022 8.8461,8.9022 3.5121,0 7.1985,-2.7101 7.1985,-2.9248 0,-0.0863 -0.1305,-0.3442 -0.347,-0.3442 -0.2602,0 -1.8215,1.0325 -4.6834,1.0325 -3.2956,0 -7.9353,-1.5913 -7.9353,-7.5258 0,-0.9888 0.1302,-1.2039 0.8238,-1.2469 4.9435,-0.3009 9.2791,-1.2464 10.4073,-1.5053 1.1708,-0.258 1.7779,-0.4298 1.7779,-0.6019 0,-0.344 -0.6935,-1.3763 -1.4308,-2.2359 -1.5616,-1.8063 -4.336,-3.2258 -6.5912,-3.2258 z m 25.012,0 c -3.947,0 -8.066,3.6125 -8.066,9.6759 0,7.1814 5.29,8.9022 8.846,8.9022 3.512,0 7.198,-2.7101 7.198,-2.9248 0,-0.0863 -0.13,-0.3442 -0.347,-0.3442 -0.26,0 -1.82,1.0325 -4.683,1.0325 -3.295,0 -7.935,-1.5913 -7.935,-7.5258 0,-0.9888 0.13,-1.2039 0.824,-1.2469 4.943,-0.3009 9.279,-1.2464 10.407,-1.5053 1.171,-0.258 1.778,-0.4298 1.778,-0.6019 0,-0.344 -0.694,-1.3763 -1.431,-2.2359 -1.561,-1.8063 -4.337,-3.2258 -6.591,-3.2258 z m -60.4847,0.3007 c -0.6944,0 -1.5184,0.2149 -2.212,0.2149 -0.8672,0 -1.6913,-0.0863 -3.1655,-0.0863 -0.7377,0 -0.6941,0.1296 -0.6941,0.6461 0,0.4731 -2e-4,0.4299 0.7812,0.4299 2.428,0 2.341,0.086 2.341,3.0099 v 11.7832 c 0,0.602 -0.1298,0.6449 -1.9075,0.6449 -1.0412,0 -1.0845,0.0856 -1.0845,0.5162 0,0.4302 0.0865,0.4299 1.0845,0.4299 0.607,0 2.0815,-0.2149 3.5557,-0.2149 1.3881,0 4.2931,0.2149 4.9001,0.2149 1.1274,0 1.1709,0.0433 1.1709,-0.4299 0,-0.3876 -0.0435,-0.5162 -1.1709,-0.5162 -3.2086,0 -3.3383,-4e-4 -3.3383,-2.1073 v -8.8592 c 0,-1.8059 0.9533,-2.838 3.468,-2.838 2.1686,0 2.6893,1.7631 3.2963,1.7631 0.2602,0 0.9536,-1.8919 0.9536,-2.3221 0,-1.1177 -1.9944,-2.0644 -2.7758,-2.0644 -2.038,0 -4.0751,2.2364 -4.7254,2.2364 -0.1736,0 -0.2168,-0.3008 -0.2168,-0.6877 0,-0.1292 0.0865,-1.0753 0.0865,-1.2903 0,-0.3448 -0.1734,-0.4731 -0.347,-0.4731 z m 86.5847,0.0428 c -0.607,0 -1.778,0.1721 -2.428,0.1721 -1.172,0 -1.952,-0.0857 -3.122,-0.0857 -0.781,0 -0.911,-3e-4 -0.911,0.5591 0,0.4302 0.173,0.4305 1.518,0.4305 1.474,0 1.473,0.2577 1.473,1.5476 0,0.6019 -1.56,5.0749 -2.601,8.1706 -0.693,2.0218 -0.954,2.6235 -1.257,2.6235 -0.174,0 -0.694,-0.731 -1.042,-1.6339 -2.601,-6.6232 -3.729,-8.1285 -3.729,-9.3753 0,-0.9889 0.261,-1.2469 1.301,-1.2469 0.91,0 1.084,-0.043 1.084,-0.4299 0,-0.4739 -0.174,-0.6455 -1.084,-0.6455 -1.387,0 -2.906,0.1286 -4.12,0.1286 -1.04,0 -1.343,-0.0857 -2.557,-0.0857 -0.781,0 -0.911,0.2153 -0.911,0.6026 0,0.3869 0.043,0.4299 0.911,0.4299 0.78,0 1.084,0.2154 2.168,2.7949 2.385,5.5907 5.853,13.5462 5.853,14.0193 0,1.2898 -3.728,6.3639 -5.289,8.2987 -1.475,1.8496 -3.513,2.1076 -3.513,2.3656 0,0.2151 0.434,0.4299 1.171,0.4299 0.954,0 1.257,-0.3438 2.558,-0.5156 0.954,-0.1292 1.475,-0.1723 1.952,-1.1182 1.387,-2.8384 3.339,-6.3219 6.071,-12.9012 3.425,-8.2557 5.334,-13.4165 6.287,-13.4165 0.521,0 1.127,-0.2151 1.127,-0.602 0,-0.4735 -0.216,-0.5165 -0.91,-0.5165 z M 35.3813,22.9712 c 1.9951,0 4.5531,3.1816 4.5531,4.2567 0,0.2581 -0.0429,0.344 -0.52,0.4299 -3.2523,0.5161 -5.594,1.076 -7.8488,1.076 -0.5208,0 -0.5206,-0.0433 -0.5206,-0.2584 0,-0.6028 1.0411,-5.5042 4.3363,-5.5042 z m 50.5621,0 c 1.9954,0 4.5536,3.1816 4.5536,4.2567 0,0.2581 -0.0434,0.344 -0.5205,0.4299 -3.2524,0.5161 -5.5938,1.076 -7.8482,1.076 -0.5204,0 -0.5206,-0.0433 -0.5206,-0.2584 0,-0.6028 1.0404,-5.5042 4.3357,-5.5042 z m 25.0116,0 c 1.995,0 4.554,3.1816 4.554,4.2567 0,0.2581 -0.044,0.344 -0.521,0.4299 -3.252,0.5161 -5.594,1.076 -7.849,1.076 -0.52,0 -0.52,-0.0433 -0.52,-0.2584 0,-0.6028 1.04,-5.5042 4.336,-5.5042 z m -98.6448,1.7643 c 5.4338,0 9.1228,3.461 9.1228,7.911 0,4.3012 -2.7914,6.8728 -6.5802,6.8728 -1.5957,0 -3.1905,-0.3463 -3.7393,-0.9399 -0.4483,-0.4946 -0.5983,-3.2629 -0.5983,-3.7082 v -8.8505 c 0,-1.0875 0.399,-1.2852 1.795,-1.2852 z m 24.7221,20.1829 c -1.0243,0 -1.8787,0.6128 -1.8787,1.6283 0,1.9299 2.5641,1.5859 2.5641,2.6602 0,0.4278 -0.3302,0.797 -0.9986,0.797 -0.4486,0 -1.0153,-0.2092 -1.4896,-0.5281 l -0.4229,0.7387 c 0.4739,0.3268 1.1167,0.638 1.9126,0.638 1.1086,0 2.0309,-0.7059 2.0309,-1.6792 0,-1.9558 -2.564,-1.3676 -2.564,-2.6689 0,-0.4278 0.2878,-0.738 0.8463,-0.738 0.4992,0 0.8882,0.1679 1.32,0.3858 l 0.3639,-0.7219 c -0.4903,-0.3018 -1.0749,-0.5119 -1.684,-0.5119 z m 20.4419,0 c -1.7433,0 -2.5215,1.234 -2.5215,2.9627 0,1.6449 0.7698,2.9714 2.5215,2.9714 1.7516,0 2.522,-1.3265 2.522,-2.9714 0,-1.7287 -0.7788,-2.9627 -2.522,-2.9627 z m 13.5891,0 c -1.7433,0 -2.5985,1.2422 -2.5985,2.9714 0,1.7621 0.7793,2.9627 2.5646,2.9627 0.7786,0 1.5065,-0.3195 2.0987,-0.8567 l -0.5162,-0.6541 c -0.4739,0.4282 -1.0154,0.6622 -1.5318,0.6622 -1.0748,0 -1.583,-0.763 -1.583,-2.1228 0,-1.351 0.5422,-2.1147 1.5661,-2.1147 0.5501,0 0.9563,0.1933 1.4046,0.5622 l 0.5249,-0.6715 c -0.6094,-0.4954 -1.2102,-0.7387 -1.9294,-0.7387 z m 22.0327,0 c -1.7437,0 -2.5215,1.234 -2.5215,2.9627 0,1.6449 0.7698,2.9714 2.5215,2.9714 1.7516,0 2.522,-1.3265 2.522,-2.9714 0,-1.7287 -0.7788,-2.9627 -2.522,-2.9627 z m -80.9798,0.0838 -0.9735,0.1013 V 50.76 h 1.0072 v -3.8605 h 0.017 l 2.4456,3.8605 h 0.8971 v -5.7491 h -1.0073 v 3.7772 h -0.025 z m 12.9195,0 v 5.7577 h 3.5207 l 0.0764,-0.848 H 26.043 v -1.6277 h 2.1751 v -0.848 H 26.043 v -1.586 h 2.4457 v -0.848 z m 36.2561,0 v 5.7577 h 1.0068 v -2.4757 h 2.133 v -0.848 h -2.133 v -1.586 h 2.3779 v -0.848 z m 15.5689,0 -1.1758,0.0926 -2.0398,5.6651 h 0.9397 l 0.4817,-1.3853 h 2.3361 l 0.4824,1.3853 h 1.033 z m 9.6792,0 v 5.7577 h 1.0068 v -2.4757 h 2.1331 v -0.848 h -2.1331 v -1.586 h 2.3786 v -0.848 z m 15.8571,0 -0.974,0.1013 V 50.76 h 1.007 v -3.8605 h 0.017 l 2.446,3.8605 h 0.897 v -5.7491 h -1.007 v 3.7772 h -0.026 z m 9.704,0 -1.177,0.0926 -2.039,5.6651 h 0.939 l 0.483,-1.3853 h 2.335 l 0.482,1.3853 h 1.033 z M 5.45353,45.0109 v 3.7511 c 0,1.2926 0.71911,2.0905 2.1412,2.0905 1.41287,0 2.13248,-0.7977 2.13248,-2.0986 v -3.743 H 8.71989 v 3.8101 c 0,0.7137 -0.30398,1.1829 -1.12507,1.1829 -0.82952,0 -1.13446,-0.4696 -1.13446,-1.1916 v -3.8014 z m 11.49067,0 v 5.749 h 1.0067 v -5.749 z m 1.9964,0 1.9972,5.749 h 1.1081 l 2.006,-5.749 h -0.9905 l -1.1082,3.2143 c 0,0 -0.1099,0.3269 -0.3978,1.309 h -0.0507 c -0.2795,-0.9821 -0.3891,-1.3176 -0.3891,-1.3176 l -1.1088,-3.2057 z m 11.0248,0 v 5.749 h 1.0068 v -2.2998 h 0.4823 c 0.3641,0 0.5757,0.3363 0.7449,0.6802 l 0.8037,1.6196 h 1.1088 l -1.1088,-2.0731 c -0.0674,-0.1344 -0.1692,-0.2857 -0.3552,-0.3951 v -0.0161 c 0.7614,-0.2855 1.0919,-0.8727 1.0919,-1.5606 0,-0.9988 -0.635,-1.7041 -1.9132,-1.7041 z m 9.984,0 v 5.749 h 1.0067 v -5.749 z m 2.1656,0 v 0.8561 h 1.5323 v 4.8929 h 1.0067 v -4.9016 h 1.4641 l 0.0764,-0.8474 z m 4.7385,0 1.828,3.2895 v 2.4595 h 1.0068 v -2.4595 l 1.8286,-3.2895 h -1.1094 l -0.8207,1.637 c 0,0 -0.1015,0.2092 -0.389,0.8474 h -0.025 c -0.3051,-0.6382 -0.4153,-0.8474 -0.4153,-0.8474 l -0.77,-1.637 z m 32.8803,0 v 5.749 h 3.4273 l 0.0764,-0.848 h -2.4964 v -4.901 z m 4.4841,0 v 5.749 h 1.0068 v -5.749 z m 12.2685,0 v 5.749 h 1.0073 v -2.2998 h 0.4824 c 0.3636,0 0.5756,0.3363 0.7448,0.6802 l 0.8038,1.6196 h 1.1083 l -1.1083,-2.0731 c -0.0674,-0.1344 -0.1692,-0.2857 -0.3552,-0.3951 v -0.0161 c 0.7613,-0.2855 1.0915,-0.8727 1.0915,-1.5606 0,-0.9988 -0.6347,-1.7041 -1.9128,-1.7041 z m 10.5686,0 v 5.749 h 1.007 v -5.749 z m -49.5823,0.7555 c 0.9987,0 1.481,0.8642 1.481,2.1147 0,1.2504 -0.4903,2.1228 -1.481,2.1228 -0.9983,0 -1.489,-0.8728 -1.489,-2.1316 0,-1.2504 0.4907,-2.1059 1.489,-2.1059 z m 35.621,0 c 0.9987,0 1.481,0.8642 1.481,2.1147 0,1.2504 -0.4907,2.1228 -1.481,2.1228 -0.9987,0 -1.489,-0.8728 -1.489,-2.1316 0,-1.2504 0.4903,-2.1059 1.489,-2.1059 z M 30.9721,45.867 h 0.8294 c 0.6856,0 0.9059,0.3189 0.9059,0.8561 0,0.5455 -0.2796,0.8977 -0.889,0.8977 h -0.8463 z m 66.5214,0 h 0.8295 c 0.6855,0 0.9058,0.3189 0.9058,0.8561 0,0.5455 -0.2795,0.8977 -0.8889,0.8977 h -0.8464 z m -21.2797,0.151 h 0.0169 c 0.3977,1.1916 0.4654,1.376 0.4654,1.376 l 0.4486,1.2674 h -1.8368 l 0.4486,-1.2674 c 0,0 0.068,-0.1844 0.4573,-1.376 z m 35.2402,0 h 0.017 c 0.398,1.1916 0.466,1.376 0.466,1.376 l 0.448,1.2674 h -1.837 l 0.449,-1.2674 c 0,0 0.068,-0.1844 0.457,-1.376 z" />
  </g>
  <defs
     id="defs52">
    <clipPath
       id="clip0_5248_27970">
      <rect
         y="0"
         x="0"
         id="rect49"
         transform="translate(1,9)"
         fill="#ffffff"
         height="43"
         width="138" />
    </clipPath>
  </defs>
</svg>
