<svg width="83" height="83" viewBox="0 0 83 83" fill="none" xmlns="http://www.w3.org/2000/svg">
<rect y="21.8893" width="64" height="64" rx="20" transform="rotate(-20 0 21.8893)" fill="#9B9EF0"/>
<rect x="9.01367" y="9.01489" width="64" height="64" rx="20" fill="#5151CD"/>
<path d="M43.6797 37.0149C43.6797 37.7222 43.3987 38.4004 42.8986 38.9005C42.3985 39.4006 41.7203 39.6816 41.013 39.6816H33.013L27.6797 45.0149V30.3482C27.6797 29.641 27.9606 28.9627 28.4607 28.4626C28.9608 27.9625 29.6391 27.6816 30.3464 27.6816H41.013C41.7203 27.6816 42.3985 27.9625 42.8986 28.4626C43.3987 28.9627 43.6797 29.641 43.6797 30.3482V37.0149Z" stroke="#FCFCFD" stroke-width="2.66667" stroke-linecap="round" stroke-linejoin="round"/>
<path d="M49.0143 37.0149H51.681C52.3882 37.0149 53.0665 37.2958 53.5666 37.7959C54.0667 38.296 54.3477 38.9743 54.3477 39.6816V54.3482L49.0143 49.0149H41.0143C40.3071 49.0149 39.6288 48.7339 39.1287 48.2338C38.6286 47.7337 38.3477 47.0555 38.3477 46.3482V45.0149" stroke="#FCFCFD" stroke-width="2.66667" stroke-linecap="round" stroke-linejoin="round"/>
</svg>
