<svg width="100%" height="100%" xmlns="http://www.w3.org/2000/svg" viewBox="0 0 100 100" style="position: absolute; top: 0; left: 0">
  <!-- First branch group (rotated -10°) -->
  <g transform="translate(50,50) rotate(-10) translate(-50,-50)">
    <g transform="translate(50,50) scale(1.0) translate(-50,-50)">
      <path d="M50 50 Q60 45, 70 35 T90 30" fill="none" stroke="#B2C3E7" stroke-width="0.5" />
      <path d="M70 35 Q75 32, 80 38 T85 35" fill="none" stroke="#B2C3E7" stroke-width="0.4" />
      <path d="M70 35 Q72 30, 75 25 T80 15" fill="none" stroke="#B2C3E7" stroke-width="0.4" />
      <path d="M80 38 Q85 40, 90 35 T95 30" fill="none" stroke="#B2C3E7" stroke-width="0.3" />

      <path d="M50 50 Q45 40, 35 38 T20 35" fill="none" stroke="#B2C3E7" stroke-width="0.5" />
      <path d="M35 38 Q32 35, 30 30 T25 25" fill="none" stroke="#B2C3E7" stroke-width="0.4" />
      <path d="M35 38 Q30 40, 25 35 T15 38" fill="none" stroke="#B2C3E7" stroke-width="0.4" />
      <path d="M30 30 Q28 25, 20 20 T15 15" fill="none" stroke="#B2C3E7" stroke-width="0.3" />

      <path d="M50 50 Q55 55, 65 58 T80 65" fill="none" stroke="#B2C3E7" stroke-width="0.5" />
      <path d="M65 58 Q70 62, 68 70 T72 75" fill="none" stroke="#B2C3E7" stroke-width="0.4" />
      <path d="M65 58 Q75 60, 85 62 T95 65" fill="none" stroke="#B2C3E7" stroke-width="0.4" />
      <path d="M68 70 Q70 75, 75 80 T80 85" fill="none" stroke="#B2C3E7" stroke-width="0.3" />

      <path d="M50 50 Q45 60, 35 62 T20 65" fill="none" stroke="#B2C3E7" stroke-width="0.5" />
      <path d="M35 62 Q30 65, 32 70 T28 75" fill="none" stroke="#B2C3E7" stroke-width="0.4" />
      <path d="M35 62 Q25 65, 15 62 T5 65" fill="none" stroke="#B2C3E7" stroke-width="0.4" />
      <path d="M32 70 Q30 75, 25 80 T20 85" fill="none" stroke="#B2C3E7" stroke-width="0.3" />

      <path d="M50 50 Q48 40, 52 30 T50 15" fill="none" stroke="#B2C3E7" stroke-width="0.5" />
      <path d="M52 30 Q57 28, 62 32 T68 28" fill="none" stroke="#B2C3E7" stroke-width="0.4" />
      <path d="M52 30 Q47 27, 42 31 T38 27" fill="none" stroke="#B2C3E7" stroke-width="0.4" />
      <path d="M62 32 Q67 30, 72 25 T78 18" fill="none" stroke="#B2C3E7" stroke-width="0.3" />

      <path d="M50 50 Q65 48, 75 52 T95 48" fill="none" stroke="#B2C3E7" stroke-width="0.5" />
      <path d="M75 52 Q82 48, 85 45 T92 42" fill="none" stroke="#B2C3E7" stroke-width="0.4" />
      <path d="M75 52 Q82 58, 85 55 T92 58" fill="none" stroke="#B2C3E7" stroke-width="0.4" />
      <path d="M85 45 Q90 42, 95 40 T98 35" fill="none" stroke="#B2C3E7" stroke-width="0.3" />

      <path d="M50 50 Q35 52, 25 48 T5 52" fill="none" stroke="#B2C3E7" stroke-width="0.5" />
      <path d="M25 48 Q18 45, 15 42 T8 38" fill="none" stroke="#B2C3E7" stroke-width="0.4" />
      <path d="M25 48 Q18 52, 15 55 T8 58" fill="none" stroke="#B2C3E7" stroke-width="0.4" />
      <path d="M15 42 Q10 38, 8 35 T2 32" fill="none" stroke="#B2C3E7" stroke-width="0.3" />
    </g>
  </g>

  <!-- Second branch group (rotated 20°) -->
  <g transform="translate(50,50) rotate(20) translate(-50,-50)">
    <g transform="translate(50,50) scale(1.0) translate(-50,-50)">
      <path d="M50 50 Q60 45, 70 35 T90 30" fill="none" stroke="#B2C3E7" stroke-width="0.5" />
      <path d="M70 35 Q75 32, 80 38 T85 35" fill="none" stroke="#B2C3E7" stroke-width="0.4" />
      <path d="M70 35 Q72 30, 75 25 T80 15" fill="none" stroke="#B2C3E7" stroke-width="0.4" />
      <path d="M80 38 Q85 40, 90 35 T95 30" fill="none" stroke="#B2C3E7" stroke-width="0.3" />

      <path d="M50 50 Q45 40, 35 38 T20 35" fill="none" stroke="#B2C3E7" stroke-width="0.5" />
      <path d="M35 38 Q32 35, 30 30 T25 25" fill="none" stroke="#B2C3E7" stroke-width="0.4" />
      <path d="M35 38 Q30 40, 25 35 T15 38" fill="none" stroke="#B2C3E7" stroke-width="0.4" />
      <path d="M30 30 Q28 25, 20 20 T15 15" fill="none" stroke="#B2C3E7" stroke-width="0.3" />

      <path d="M50 50 Q55 55, 65 58 T80 65" fill="none" stroke="#B2C3E7" stroke-width="0.5" />
      <path d="M65 58 Q70 62, 68 70 T72 75" fill="none" stroke="#B2C3E7" stroke-width="0.4" />
      <path d="M65 58 Q75 60, 85 62 T95 65" fill="none" stroke="#B2C3E7" stroke-width="0.4" />
      <path d="M68 70 Q70 75, 75 80 T80 85" fill="none" stroke="#B2C3E7" stroke-width="0.3" />

      <path d="M50 50 Q45 60, 35 62 T20 65" fill="none" stroke="#B2C3E7" stroke-width="0.5" />
      <path d="M35 62 Q30 65, 32 70 T28 75" fill="none" stroke="#B2C3E7" stroke-width="0.4" />
      <path d="M35 62 Q25 65, 15 62 T5 65" fill="none" stroke="#B2C3E7" stroke-width="0.4" />
      <path d="M32 70 Q30 75, 25 80 T20 85" fill="none" stroke="#B2C3E7" stroke-width="0.3" />

      <path d="M50 50 Q48 40, 52 30 T50 15" fill="none" stroke="#B2C3E7" stroke-width="0.5" />
      <path d="M52 30 Q57 28, 62 32 T68 28" fill="none" stroke="#B2C3E7" stroke-width="0.4" />
      <path d="M52 30 Q47 27, 42 31 T38 27" fill="none" stroke="#B2C3E7" stroke-width="0.4" />
      <path d="M62 32 Q67 30, 72 25 T78 18" fill="none" stroke="#B2C3E7" stroke-width="0.3" />

      <path d="M50 50 Q65 48, 75 52 T95 48" fill="none" stroke="#B2C3E7" stroke-width="0.5" />
      <path d="M75 52 Q82 48, 85 45 T92 42" fill="none" stroke="#B2C3E7" stroke-width="0.4" />
      <path d="M75 52 Q82 58, 85 55 T92 58" fill="none" stroke="#B2C3E7" stroke-width="0.4" />
      <path d="M85 45 Q90 42, 95 40 T98 35" fill="none" stroke="#B2C3E7" stroke-width="0.3" />

      <path d="M50 50 Q35 52, 25 48 T5 52" fill="none" stroke="#B2C3E7" stroke-width="0.5" />
      <path d="M25 48 Q18 45, 15 42 T8 38" fill="none" stroke="#B2C3E7" stroke-width="0.4" />
      <path d="M25 48 Q18 52, 15 55 T8 58" fill="none" stroke="#B2C3E7" stroke-width="0.4" />
      <path d="M15 42 Q10 38, 8 35 T2 32" fill="none" stroke="#B2C3E7" stroke-width="0.3" />
    </g>
  </g>
</svg>
