<svg width="83" height="83" viewBox="0 0 83 83" fill="none" xmlns="http://www.w3.org/2000/svg">
<rect y="21.8893" width="64" height="64" rx="20" transform="rotate(-20 0 21.8893)" fill="#9B9EF0"/>
<rect x="9.01367" y="9.01489" width="64" height="64" rx="20" fill="#5151CD"/>
<path d="M41.013 34.3482C42.854 34.3482 44.3464 32.8559 44.3464 31.0149C44.3464 29.174 42.854 27.6816 41.013 27.6816C39.1721 27.6816 37.6797 29.174 37.6797 31.0149C37.6797 32.8559 39.1721 34.3482 41.013 34.3482Z" stroke="#FCFCFD" stroke-width="2.66667" stroke-linecap="round" stroke-linejoin="round"/>
<path d="M38.6141 33.4149L33.4141 38.6149" stroke="#FCFCFD" stroke-width="2.66667" stroke-linecap="round" stroke-linejoin="round"/>
<path d="M31.013 44.3482C32.854 44.3482 34.3464 42.8559 34.3464 41.0149C34.3464 39.174 32.854 37.6816 31.013 37.6816C29.1721 37.6816 27.6797 39.174 27.6797 41.0149C27.6797 42.8559 29.1721 44.3482 31.013 44.3482Z" stroke="#FCFCFD" stroke-width="2.66667" stroke-linecap="round" stroke-linejoin="round"/>
<path d="M34.3477 41.0149H47.681" stroke="#FCFCFD" stroke-width="2.66667" stroke-linecap="round" stroke-linejoin="round"/>
<path d="M51.013 44.3482C52.854 44.3482 54.3464 42.8559 54.3464 41.0149C54.3464 39.174 52.854 37.6816 51.013 37.6816C49.1721 37.6816 47.6797 39.174 47.6797 41.0149C47.6797 42.8559 49.1721 44.3482 51.013 44.3482Z" stroke="#FCFCFD" stroke-width="2.66667" stroke-linecap="round" stroke-linejoin="round"/>
<path d="M43.4141 48.6149L48.6141 43.4149" stroke="#FCFCFD" stroke-width="2.66667" stroke-linecap="round" stroke-linejoin="round"/>
<path d="M41.013 54.3482C42.854 54.3482 44.3464 52.8559 44.3464 51.0149C44.3464 49.174 42.854 47.6816 41.013 47.6816C39.1721 47.6816 37.6797 49.174 37.6797 51.0149C37.6797 52.8559 39.1721 54.3482 41.013 54.3482Z" stroke="#FCFCFD" stroke-width="2.66667" stroke-linecap="round" stroke-linejoin="round"/>
</svg>
