<svg width="83" height="83" viewBox="0 0 83 83" fill="none" xmlns="http://www.w3.org/2000/svg">
<rect y="21.8893" width="64" height="64" rx="20" transform="rotate(-20 0 21.8893)" fill="#9B9EF0"/>
<rect x="9.01367" y="9.01489" width="64" height="64" rx="20" fill="#5151CD"/>
<path d="M41.0137 43.6815L46.347 38.3482" stroke="#FCFCFD" stroke-width="2.66667" stroke-linecap="round" stroke-linejoin="round"/>
<path d="M29.4664 50.3482C28.296 48.3213 27.6798 46.022 27.6797 43.6815C27.6796 41.3409 28.2956 39.0416 29.4658 37.0146C30.6361 34.9876 32.3192 33.3044 34.3462 32.1341C36.3732 30.9638 38.6725 30.3477 41.013 30.3477C43.3536 30.3477 45.6529 30.9638 47.6798 32.1341C49.7068 33.3044 51.39 34.9876 52.5602 37.0146C53.7304 39.0416 54.3464 41.3409 54.3464 43.6815C54.3463 46.022 53.7301 48.3213 52.5597 50.3482" stroke="#FCFCFD" stroke-width="2.66667" stroke-linecap="round" stroke-linejoin="round"/>
</svg>
