<?xml version="1.0" encoding="UTF-8" standalone="no"?>
<svg
   xmlns:dc="http://purl.org/dc/elements/1.1/"
   xmlns:cc="http://creativecommons.org/ns#"
   xmlns:rdf="http://www.w3.org/1999/02/22-rdf-syntax-ns#"
   xmlns:svg="http://www.w3.org/2000/svg"
   xmlns="http://www.w3.org/2000/svg"
   xmlns:sodipodi="http://sodipodi.sourceforge.net/DTD/sodipodi-0.dtd"
   xmlns:inkscape="http://www.inkscape.org/namespaces/inkscape"
   inkscape:version="1.0 (4035a4f, 2020-05-01)"
   sodipodi:docname="Harvard_logo.svg"
   id="svg229"
   version="1.1"
   fill="none"
   viewBox="0 0 145 40"
   height="40"
   width="145">
  <metadata
     id="metadata235">
    <rdf:RDF>
      <cc:Work
         rdf:about="">
        <dc:format>image/svg+xml</dc:format>
        <dc:type
           rdf:resource="http://purl.org/dc/dcmitype/StillImage" />
        <dc:title></dc:title>
      </cc:Work>
    </rdf:RDF>
  </metadata>
  <defs
     id="defs233" />
  <sodipodi:namedview
     inkscape:current-layer="svg229"
     inkscape:window-maximized="0"
     inkscape:window-y="45"
     inkscape:window-x="1720"
     inkscape:cy="30"
     inkscape:cx="70"
     inkscape:zoom="7.9571429"
     showgrid="false"
     id="namedview231"
     inkscape:window-height="927"
     inkscape:window-width="1393"
     inkscape:pageshadow="2"
     inkscape:pageopacity="0"
     guidetolerance="10"
     gridtolerance="10"
     objecttolerance="10"
     borderopacity="1"
     bordercolor="#666666"
     pagecolor="#ffffff" />
  <mask
     height="37"
     width="140"
     y="12"
     x="0"
     maskUnits="userSpaceOnUse"
     id="mask0_5248_27470">
    <path
       id="path78"
       fill="#ffffff"
       d="M 0,12 H 140 V 49 H 0 Z" />
  </mask>
  <g
     transform="matrix(1.0600976,0,0,1.0963925,-2.2141687,-12.948212)"
     id="g227"
     mask="url(#mask0_5248_27470)">
    <path
       id="path81"
       fill="#889caa"
       d="m 57.2709,37.0566 c 0,-0.2855 -0.1843,-0.4969 -0.5609,-0.5792 v -0.1848 c 0.2085,0 0.9029,0.0282 1.0983,0.0282 0.169,0 0.8415,-0.0282 1.0507,-0.0282 v 0.1848 c -0.3496,0.0689 -0.5332,0.2774 -0.5332,0.5792 v 3.6255 c 0,1.1481 0.6241,1.7971 1.9295,1.7971 1.1248,0 2,-0.5102 2,-1.7117 v -3.725 c 0,-0.2693 -0.1674,-0.4828 -0.5888,-0.5651 v -0.1848 c 0.1533,0 0.7275,0.0282 0.9236,0.0282 0.1674,0 0.7701,-0.0282 0.9242,-0.0282 v 0.1848 c -0.4066,0.0979 -0.5873,0.2817 -0.5873,0.5651 v 3.5252 c 0,1.5822 -0.9111,2.4909 -2.8772,2.4909 -1.8304,0 -2.7789,-0.8405 -2.7789,-2.3269 z" />
    <path
       id="path83"
       fill="#889caa"
       d="m 65.1231,42.7745 c 0.4259,-0.0801 0.594,-0.298 0.594,-0.5651 v -5.011 c 0,-0.425 -0.224,-0.6162 -0.6058,-0.7215 v -0.1848 c 0.216,0.0163 0.5786,0.0259 0.7636,0.0259 0.1682,0 0.4296,-0.0029 0.6057,-0.0259 l 4.3023,5.1104 v -4.3598 c 0,-0.2686 -0.1688,-0.4821 -0.5887,-0.5658 v -0.1848 c 0.1542,0 0.7078,0.0289 0.9045,0.0289 0.1711,0 0.7643,-0.0289 0.9206,-0.0289 v 0.1848 c -0.4104,0.0978 -0.6085,0.2832 -0.6085,0.5658 v 6.0159 h -0.2592 c -0.1632,-0.0378 -0.4715,-0.215 -0.9412,-0.7357 L 66.361,37.7933 v 4.4161 c 0,0.2684 0.1533,0.4813 0.5734,0.5651 V 42.96 c -0.1542,0 -0.7077,-0.0296 -0.9045,-0.0296 -0.1696,0 -0.7505,0.0296 -0.9068,0.0296 z" />
    <path
       id="path85"
       fill="#889caa"
       d="m 99.0717,41.4227 h 0.1821 c 0.0963,0.3745 0.3083,0.7158 0.6057,0.9131 0.3095,0.2202 0.7945,0.3255 1.1865,0.3255 0.866,0 1.414,-0.4331 1.414,-1.1185 0,-0.7098 -0.703,-1.0783 -1.545,-1.5034 -0.626,-0.3166 -1.8564,-0.8394 -1.8564,-2.0411 0,-1.1193 0.8451,-1.8157 2.1964,-1.8157 0.892,0 1.311,0.2203 1.913,0.192 l -0.012,1.3581 h -0.184 c -0.24,-0.8003 -0.96,-1.0792 -1.748,-1.0792 -0.881,0 -1.21,0.509 -1.21,1.0266 0,0.741 0.718,1.1147 1.531,1.4812 0.915,0.4116 1.908,0.9316 1.908,2.0894 0,1.0961 -0.849,1.8899 -2.4,1.8899 -0.923,0 -1.4769,-0.2662 -1.9621,-0.3266 z" />
    <path
       id="path87"
       fill="#889caa"
       d="m 117.56,40.2015 -1.752,-2.8391 c -0.298,-0.4985 -0.527,-0.7612 -0.861,-0.8857 v -0.1841 c 0.24,0 0.889,0.029 1.073,0.029 0.166,0 0.866,-0.029 1.119,-0.029 v 0.1841 c -0.224,0.04 -0.329,0.1534 -0.329,0.3241 0,0.1505 0.101,0.3442 0.203,0.5125 0.1,0.1668 1.292,2.1636 1.292,2.1636 l 1.244,-2.1627 c 0.126,-0.2168 0.215,-0.4318 0.215,-0.5736 0,-0.129 -0.091,-0.2358 -0.303,-0.2639 v -0.1841 c 0.211,0 0.653,0.029 0.794,0.029 0.142,0 0.65,-0.029 0.859,-0.029 v 0.1715 c -0.478,0.1981 -0.777,0.6223 -1.067,1.114 l -1.592,2.6887 m 0.108,-0.339 v 2.2681 c 0,0.2248 0.17,0.5074 0.553,0.5784 V 42.96 c -0.214,0 -0.911,-0.0298 -1.113,-0.0298 -0.17,0 -0.839,0.0298 -1.08,0.0298 v -0.1857 c 0.385,-0.071 0.569,-0.3536 0.569,-0.5784 v -2.1686" />
    <path
       id="path89"
       fill="#889caa"
       d="m 85.01,36.2925 h 4.1077 c 0.1271,0 0.3496,-0.0147 0.4765,-0.0703 h 0.1837 l -0.0288,1.3483 h -0.182 c -0.1564,-0.4242 -0.3187,-0.7639 -1.1137,-0.7639 h -1.7835 v 2.3498 h 1.3746 c 0.2004,0 0.4433,-0.0172 0.5484,-0.0424 0.309,-0.0682 0.445,-0.2419 0.5074,-0.508 h 0.1834 c -0.0131,0.2031 -0.0131,0.6668 -0.0131,0.804 0,0.1379 0.0131,0.626 0.0131,0.8471 H 89.1003 C 89.012,39.9915 88.8917,39.7897 88.5929,39.7156 88.4878,39.6874 88.2405,39.6644 88.0445,39.6644 h -1.3746 v 2.7563 h 1.9398 c 0.8473,0 1.0934,-0.3569 1.3039,-0.8612 l 0.1814,0.0429 -0.1814,1.3849 c -0.6299,-0.0564 -1.0079,-0.0564 -1.7231,-0.0564 h -2.0497 c -0.1976,0 -0.9223,0.029 -1.133,0.029 v -0.1848 c 0.37,-0.0712 0.586,-0.256 0.586,-0.6142 v -5.0976 c 0,-0.316 -0.1683,-0.5134 -0.5838,-0.5838 z" />
    <path
       id="path91"
       fill="#889caa"
       d="m 74.5182,37.0996 c 0,-0.3418 -0.2018,-0.5302 -0.5976,-0.6163 v -0.1832 c 0.2203,0 0.9334,0.0281 1.1411,0.0281 0.1739,0 0.9068,-0.0281 1.1299,-0.0281 v 0.1832 c -0.3936,0.0861 -0.5999,0.2565 -0.5999,0.6163 v 5.0622 c 0,0.3419 0.2027,0.528 0.5999,0.6125 V 42.96 c -0.2225,0 -0.9252,-0.0291 -1.1299,-0.0291 -0.1771,0 -0.9208,0.0291 -1.1418,0.0291 v -0.1857 c 0.4046,-0.0762 0.5983,-0.255 0.5983,-0.6125 z" />
    <path
       id="path93"
       fill="#889caa"
       d="m 105.68,37.0996 c 0,-0.3418 -0.204,-0.5302 -0.599,-0.6163 v -0.1832 c 0.22,0 0.934,0.0281 1.14,0.0281 0.176,0 0.908,-0.0281 1.131,-0.0281 v 0.1832 c -0.394,0.0861 -0.599,0.2565 -0.599,0.6163 v 5.0622 c 0,0.3419 0.203,0.528 0.599,0.6125 V 42.96 c -0.221,0 -0.923,-0.0291 -1.131,-0.0291 -0.174,0 -0.92,0.0291 -1.14,0.0291 v -0.1857 c 0.404,-0.0762 0.599,-0.255 0.599,-0.6125 z" />
    <path
       id="path95"
       fill="#889caa"
       d="m 111.389,36.3208 c -2.252,0 -2.612,-0.0423 -3.073,-0.0712 l 0.004,1.3737 h 0.184 c 0.168,-0.609 0.503,-0.7506 0.938,-0.7506 h 1.413 v 5.2891 c 0,0.3573 -0.194,0.5363 -0.599,0.6125 V 42.96 c 0.222,0 0.972,-0.0291 1.145,-0.0291 0.207,0 0.912,0.0291 1.131,0.0291 v -0.1857 c -0.398,-0.0845 -0.6,-0.2706 -0.6,-0.6125 v -5.2891 h 1.402 c 0.451,0 0.773,0.155 0.941,0.7506 h 0.181 l 0.003,-1.3737 c -0.457,0.0289 -0.817,0.0712 -3.07,0.0712 z" />
    <path
       id="path97"
       fill="#889caa"
       d="m 93.4211,42.1617 c 0,0.3419 0.215,0.5274 0.6123,0.6126 v 0.1856 c -0.2203,0 -0.9405,-0.0291 -1.1461,-0.0291 -0.1762,0 -0.8795,0.0291 -1.1012,0.0291 v -0.1856 c 0.3685,-0.0711 0.5857,-0.2551 0.5857,-0.6126 v -5.1139 c 0,-0.3145 -0.1694,-0.5125 -0.5842,-0.5838 v -0.1839 c 0.2202,0 0.9168,0.028 1.1137,0.028 0.3224,0 1.2385,-0.0547 1.5991,-0.0547 1.5784,0 2.4573,0.6593 2.4573,1.7896 0,0.8885 -0.6542,1.4895 -1.6616,1.7349 0,0 0.23,0.1349 0.4589,0.4042 0.2784,0.3314 1.0301,1.4212 1.342,1.8022 0.3115,0.3822 0.7101,0.8086 1.1373,0.8279 v 0.149 c -0.2047,0.0452 -0.533,0.0847 -0.7841,0.0847 -0.5359,0 -0.9638,-0.1913 -1.3794,-0.6994 -0.3597,-0.4421 -0.9698,-1.3595 -1.329,-1.8232 -0.2296,-0.2952 -0.508,-0.5258 -1.0175,-0.6105 -0.0985,-0.017 -0.1916,-0.0311 -0.3032,-0.0444 z m 0,-2.7176 c 0.21,0.0289 0.519,0.0423 0.8245,0.0423 1.2357,0 1.6248,-0.718 1.6248,-1.3535 0,-0.8989 -0.5941,-1.456 -1.6755,-1.456 -0.2238,0 -0.5485,0.0282 -0.7738,0.071 z" />
    <path
       id="path99"
       fill="#889caa"
       d="m 77.7747,37.1211 c -0.1438,-0.3219 -0.3648,-0.5578 -0.7415,-0.6414 v -0.1879 c 0.2341,0 1.0455,0.0298 1.2237,0.0298 0.164,0 0.8731,-0.0298 1.114,-0.0298 v 0.1825 c -0.2138,0.0415 -0.4574,0.1609 -0.4574,0.382 0,0.1579 0.0946,0.3731 0.276,0.7781 l 1.7004,3.9086 1.6093,-3.9153 c 0.1271,-0.316 0.2189,-0.5607 0.2189,-0.7477 0,-0.2068 -0.1888,-0.3501 -0.4562,-0.4057 v -0.1825 c 0.2139,0 0.738,0.0298 0.901,0.0298 0.149,0 0.7643,-0.0298 0.9993,-0.0298 v 0.1879 c -0.4016,0.1097 -0.6463,0.3329 -0.8716,0.8618 l -2.3685,5.6419 h -0.5359 z" />
    <path
       id="path101"
       fill="#889caa"
       d="M 83.8476,19.3279 C 83.5738,18.7175 83.1538,18.2724 82.4424,18.113 v -0.3553 c 0.4427,0 1.9125,0.0534 2.2503,0.0534 0.3113,0 1.7349,-0.0534 2.1885,-0.0534 v 0.3464 c -0.4024,0.0795 -0.8649,0.3064 -0.8649,0.7254 0,0.2958 0.1821,0.7047 0.5199,1.4708 l 3.2252,7.4074 3.052,-7.42 c 0.2379,-0.6007 0.4155,-1.0599 0.4155,-1.4152 0,-0.3946 -0.3611,-0.6622 -0.867,-0.7684 v -0.3464 c 0.4038,0 1.3854,0.0534 1.6973,0.0534 0.2836,0 1.4494,-0.0534 1.893,-0.0534 v 0.3353 c -0.7607,0.2085 -1.2261,0.6498 -1.6498,1.6517 l -4.4866,10.6948 h -1.0154 z" />
    <path
       id="path103"
       fill="#889caa"
       d="m 40.418,30.0315 c 0.5858,-0.1351 0.9977,-0.4042 0.9977,-1.0747 v -9.8046 c 0,-0.6438 -0.3833,-0.9109 -0.9977,-1.0725 v -0.3479 c 0.3076,0 1.6328,0.0527 1.9551,0.0527 0.3715,0 1.7605,-0.0527 2.066,-0.0527 v 0.3479 C 43.8539,18.2139 43.42,18.4824 43.42,19.1522 v 4.0957 h 7.2303 v -4.0957 c 0,-0.6698 -0.3855,-0.9383 -0.9963,-1.0725 v -0.3479 c 0.3053,0 1.6696,0.0527 2.0403,0.0527 0.3201,0 1.6762,-0.0527 1.9785,-0.0527 v 0.3479 c -0.5857,0.1342 -1.0197,0.4027 -1.0197,1.0725 v 9.8046 c 0,0.6438 0.4074,0.9138 1.0197,1.0747 v 0.321 c -0.3023,0 -1.6584,-0.0265 -1.9785,-0.0265 -0.3707,0 -1.735,0.0265 -2.0403,0.0265 v -0.321 c 0.5815,-0.1351 0.9963,-0.4042 0.9963,-1.0747 V 24.3232 H 43.42 v 4.6336 c 0,0.6705 0.4068,0.9138 1.0191,1.0747 v 0.321 c -0.3055,0 -1.6945,-0.0265 -2.066,-0.0265 -0.3223,0 -1.6475,0.0265 -1.9551,0.0265 z" />
    <path
       id="path105"
       fill="#889caa"
       d="m 124.049,30.0318 c 0.75,-0.1351 1.164,-0.4361 1.164,-1.1281 v -9.7512 c 0,-0.672 -0.408,-0.9383 -1.133,-1.0725 v -0.3479 c 0.417,0 1.777,0.0527 2.154,0.0527 0.608,0 2.304,-0.1342 3.624,-0.1342 4.447,0 7.148,2.5092 7.148,6.3245 0,3.7085 -2.81,6.4565 -7.396,6.4565 -1.322,0 -2.89,-0.1053 -3.504,-0.1053 -0.373,0 -1.641,0.0533 -2.057,0.0533 z m 3.166,-0.6461 c 0.453,0.0832 1.29,0.1351 1.95,0.1351 3.737,0 5.682,-2.2718 5.682,-5.4404 0,-3.2849 -2.053,-5.5962 -5.546,-5.5962 -0.714,0 -1.605,0.0541 -2.086,0.1329 z" />
    <path
       id="path107"
       fill="#889caa"
       d="m 73.7049,28.8679 c 0,0.6498 0.4074,1.0027 1.1571,1.1637 v 0.3479 c -0.4178,0 -1.7782,-0.0534 -2.1695,-0.0534 -0.3304,0 -1.6653,0.0534 -2.0821,0.0534 v -0.3479 c 0.6959,-0.1349 1.1063,-0.485 1.1063,-1.1637 v -9.6814 c 0,-0.5957 -0.3186,-0.9723 -1.105,-1.1067 v -0.3479 c 0.4179,0 1.7364,0.0527 2.1064,0.0527 0.6116,0 2.3459,-0.103 3.03,-0.103 2.9911,0 4.6562,1.2497 4.6562,3.3873 0,1.6852 -1.2422,2.8191 -3.1487,3.2872 0,0 0.4323,0.2545 0.8675,0.7668 0.528,0.6268 1.9847,2.7333 2.5736,3.4549 0.5886,0.7225 1.3441,1.5294 2.1518,1.5665 v 0.2843 c -0.387,0.0843 -1.0066,0.1564 -1.4802,0.1564 -1.0197,0 -1.8295,-0.3606 -2.6173,-1.3248 -0.6791,-0.8367 -1.8671,-2.6152 -2.5477,-3.4933 -0.4346,-0.5595 -0.9587,-0.9954 -1.9212,-1.1563 -0.1896,-0.0328 -0.3678,-0.058 -0.5772,-0.0817 z m 0,-5.1422 c 0.3958,0.0526 0.9808,0.0793 1.561,0.0793 2.339,0 3.0739,-1.3602 3.0739,-2.5619 0,-1.7065 -1.1248,-2.7591 -3.1739,-2.7591 -0.4222,0 -1.0373,0.0542 -1.461,0.1328 z" />
    <path
       id="path109"
       fill="#889caa"
       d="m 113.128,28.8679 c 0,0.6498 0.409,1.0027 1.16,1.1637 v 0.3479 c -0.417,0 -1.776,-0.0534 -2.168,-0.0534 -0.336,0 -1.666,0.0534 -2.085,0.0534 v -0.3479 c 0.695,-0.1349 1.106,-0.485 1.106,-1.1637 v -9.6814 c 0,-0.5957 -0.322,-0.9723 -1.104,-1.1067 v -0.3479 c 0.42,0 1.734,0.0527 2.107,0.0527 0.613,0 2.346,-0.103 3.026,-0.103 2.996,0 4.656,1.2497 4.656,3.3873 0,1.6852 -1.239,2.8191 -3.147,3.2872 0,0 0.435,0.2545 0.866,0.7668 0.533,0.6268 1.99,2.7333 2.576,3.4549 0.591,0.7225 1.347,1.5294 2.15,1.5665 v 0.2843 c -0.382,0.0843 -1.005,0.1564 -1.473,0.1564 -1.022,0 -1.836,-0.3606 -2.621,-1.3248 -0.68,-0.8367 -1.864,-2.6152 -2.55,-3.4933 -0.435,-0.5595 -0.957,-0.9954 -1.918,-1.1563 -0.192,-0.0328 -0.369,-0.058 -0.581,-0.0817 z m 0,-5.1422 c 0.401,0.0526 0.983,0.0793 1.563,0.0793 2.34,0 3.073,-1.3602 3.073,-2.5619 0,-1.7065 -1.126,-2.7591 -3.171,-2.7591 -0.426,0 -1.038,0.0542 -1.465,0.1328 z" />
    <path
       id="path111"
       fill="#889caa"
       d="m 55.5749,30.0293 c 0.7914,-0.1868 1.2261,-0.7046 1.5146,-1.3974 l 4.0043,-9.7333 c 0.1703,-0.4027 0.3685,-1.2305 0.3685,-1.2305 h 1.1205 c 0,0 0.2004,0.83 0.367,1.2335 l 4.2318,9.757 c 0.3018,0.672 0.6284,1.1572 1.4699,1.3707 l -0.0022,0.3242 c -0.4581,0 -1.8824,-0.0267 -2.2064,-0.0267 -0.3222,0 -1.6827,0.0267 -2.14,0.0267 l 0.0015,-0.3242 c 0.616,-0.1527 0.8105,-0.4694 0.8105,-0.7758 0,-0.2602 -0.1064,-0.5541 -0.2356,-0.8588 l -0.9098,-2.0962 h -4.6628 l -0.8332,2.108 c -0.0933,0.2388 -0.2042,0.5763 -0.2042,0.804 0,0.3516 0.1821,0.632 0.881,0.8188 l -0.0015,0.3242 c -0.414,0 -1.5072,-0.0267 -1.7633,-0.0267 l -1.8113,0.0267 z m 7.9725,-4.7247 -1.9911,-4.6867 -1.8545,4.6867 z" />
    <path
       id="path113"
       fill="#889caa"
       d="m 95.2456,30.0293 c 0.7909,-0.1868 1.2269,-0.7046 1.514,-1.3974 l 4.0054,-9.7333 c 0.171,-0.4027 0.371,-1.2305 0.371,-1.2305 h 1.12 c 0,0 0.199,0.83 0.365,1.2335 l 4.233,9.757 c 0.299,0.672 0.629,1.1572 1.467,1.3707 l -0.002,0.3242 c -0.456,0 -1.882,-0.0267 -2.208,-0.0267 -0.319,0 -1.679,0.0267 -2.137,0.0267 v -0.3242 c 0.619,-0.1527 0.811,-0.4694 0.811,-0.7758 0,-0.2602 -0.105,-0.5541 -0.232,-0.8588 l -0.913,-2.0962 h -4.6633 l -0.8339,2.108 c -0.0933,0.2388 -0.2034,0.5763 -0.2034,0.804 0,0.3516 0.1821,0.632 0.881,0.8188 v 0.3242 c -0.4155,0 -1.5071,-0.0267 -1.7648,-0.0267 l -1.8115,0.0267 z m 7.9724,-4.7247 -1.992,-4.6867 -1.8535,4.6867 z" />
    <path
       id="path115"
       fill="#688092"
       d="M 3.44922,13.7967 H 31.3689 v 10.6546 c 0,4.8817 -1.7988,15.2344 -13.8557,22.9393 0,0 -13.06406,-5.5117 -14.06398,-22.9393 z" />
    <path
       id="path117"
       stroke-width="0.306667"
       stroke="#889caa"
       d="m 3.3916,13.7689 h 27.9468 v 10.662 c 0,4.8834 -1.801,15.2418 -13.8688,22.9519 0,0 -13.07659,-5.5153 -14.078,-22.9519 z" />
    <path
       id="path119"
       fill="#ffffff"
       d="m 24.581,27.4881 c 0,0 -0.2489,0.8017 -1.3559,-0.0223 l -3.801,-0.0928 c 0,0 -0.4977,0.1618 -0.5654,-0.3642 0,0 0.0912,-1.0508 0.0449,-1.1428 0,0 0.0228,-0.2967 -0.4766,-0.2967 0,0 -0.7679,0.0912 -0.7907,-0.5956 0,0 -0.1342,-0.7312 0.9281,-0.7069 0,0 0.3392,0.1594 0.362,-0.2758 0,0 -0.0447,-2.972 -0.0228,-3.199 0,0 0.091,-0.273 -0.4303,-0.3197 0,0 -0.7459,0.1595 -0.837,-0.3418 0,0 -0.0447,-0.7543 0.4538,-0.801 0,0 0.6102,0.0467 0.7231,-0.1143 0,0 0.1367,0.0904 0.1132,-0.4554 l 0.0235,-0.9391 c 0,0 0.0653,-0.2507 0.4508,-0.2261 0,0 0.7017,0.0452 0.7935,-0.0246 0,0 0.1565,-0.2046 0.2027,-0.2975 0,0 0.3627,-0.0221 0.4296,0.0697 0,0 0.5433,0.3658 2.6018,0.2278 0,0 0.3173,0 0.3833,0.0921 0,0 0.3861,0.2965 0.6116,-0.0223 0,0 0.3393,-0.0698 1.3568,-0.0452 0,0 1.11,0.2958 1.8773,-0.3442 l 0.2496,0.046 c 0,0 0.3164,0.5243 0.5426,0.3657 0,0 0.6791,-0.0675 0.7914,0.0689 0,0 0.2255,0.3405 0.1131,1.2349 0,0 -0.1342,0.3872 0.5213,0.3872 0,0 0.7475,-0.1379 0.6555,0.5704 0,0 0.2034,0.8003 -1.0395,0.6867 0,0 -0.1593,0.2285 -0.1373,0.3888 0,0 -0.022,2.6041 -0.0448,2.9029 0,0 -0.0221,0.4118 0.5199,0.3879 0,0 0.7247,-0.0473 0.7488,0.6164 0,0 0.0896,0.8685 -0.9522,0.7076 0,0 -0.3165,0.0467 -0.3635,0.2522 l -0.0424,1.1428 c 0,0 0.0211,0.5712 -0.611,0.4333 -0.0903,0 -3.5286,0.0705 -3.8236,-0.0207 0,0 -0.1601,-0.023 -0.2042,0.0667 z" />
    <path
       id="path121"
       fill="#ffffff"
       d="m 17.2732,31.3079 c 0,0 0.1586,-0.0675 0.2034,-0.1802 0,0 0.4757,-0.0469 0.5424,-0.1149 l 1.4941,0.1149 c 0,0 1.4699,0.1127 2.1035,-0.3464 0,0 0.2276,0 0.3861,0.0697 0,0 0.315,0.0697 0.4053,0.2048 l 0.8605,-0.0231 c 0,0 0.4977,0.1617 0.4515,0.482 v 0.4103 c 0,0 -0.091,0.8233 0.1352,0.87 h 0.6577 c 0,0 0.5434,0.2508 0.4751,0.5703 0,0 0.0228,0.4555 -0.4515,0.5482 0,0 -0.4773,0.1364 -0.6337,0.1149 0,0 -0.1593,0.2048 -0.1828,0.4561 l -0.066,2.9944 c 0,0 -0.0462,0.3197 0.4295,0.2743 0,0 0.6996,-0.0689 0.9045,0.3212 0,0 0.1812,0.6616 -0.1806,0.7758 l -0.2709,0.1357 -0.5897,0.0951 c 0,0 -0.2472,0.0207 -0.2709,0.4546 v 0.7987 c 0,0 0.0237,0.5505 -0.4074,0.5505 l -0.6336,0.0459 c 0,0 -0.1579,0.135 -0.4742,0.0438 0,0 -3.8465,0.0704 -3.9824,0.0239 l -0.4528,0.0925 c 0,0 -0.4972,0.457 -0.9046,0.1127 l -0.3165,-0.2514 c 0,0 -0.2268,0.0462 -0.3156,0.0223 -0.091,-0.0223 -4.2539,0.0467 -4.2539,0.0467 0,0 -0.8826,0.0927 -0.9494,-0.2061 0,0 -0.1129,-1.1646 -0.0682,-1.304 0,0 0,-0.3412 -0.2034,-0.3634 0,0 -0.88248,-0.046 -0.90526,-0.1387 0,0 -0.47576,-0.3411 -0.3399,-0.6833 0,0 0.15931,-0.4589 0.63356,-0.5043 0,0 0.7239,0.1158 0.7239,-0.0904 0,0 0.0464,-0.1372 0.0464,-0.3649 0,0 0.0447,-2.7213 0.0219,-2.9037 0,0 0.0675,-0.3428 -0.2268,-0.3428 0,0 -0.3164,0.0906 -0.5192,-0.0458 0,0 -0.54324,0.023 -0.65632,-0.4118 0,0 -0.09096,-0.2736 0.04407,-0.5043 0,0 0.24977,-0.5021 0.97365,-0.3414 0,0 0.4074,0.1151 0.4521,-0.1809 l -0.0212,-1.0992 c 0,0 -0.0918,-0.2958 0.4742,-0.4554 0,0 0.7239,0.2048 0.9494,-0.1601 0,0 0.2496,-0.5045 0.4508,-0.1616 0,0 0.4317,0.4124 1.6079,0.3686 0,0 2.0366,-0.1617 2.0813,-0.0719 0,0 0.4979,0.0719 0.6329,0.2298 z" />
    <path
       id="path123"
       fill="#ffffff"
       d="m 11.1233,27.4873 c 0,0 -0.2496,0.8017 -1.35815,-0.023 l -3.80028,-0.092 c 0,0 -0.49772,0.1617 -0.56606,-0.3648 0,0 0.09113,-1.0503 0.04407,-1.1423 0,0 0.02427,-0.2982 -0.47427,-0.2982 0,0 -0.76794,0.0934 -0.79006,-0.5925 0,0 -0.13652,-0.7337 0.92659,-0.7085 0,0 0.33774,0.1595 0.36201,-0.275 0,0 -0.04556,-2.9706 -0.02427,-3.2004 0,0 0.09245,-0.2715 -0.42804,-0.3184 0,0 -0.74749,0.1588 -0.83629,-0.344 0,0 -0.04623,-0.7528 0.45082,-0.7995 0,0 0.61096,0.0467 0.7247,-0.1114 0,0 0.13587,0.0884 0.11308,-0.4606 l 0.02279,-0.9359 c 0,0 0.06818,-0.2515 0.45065,-0.2285 0,0 0.70342,0.0452 0.79438,-0.023 0,0 0.15798,-0.2047 0.20121,-0.2976 0,0 0.36418,-0.0215 0.4317,0.0676 0,0 0.54178,0.3679 2.60264,0.23 0,0 0.31498,0 0.38328,0.092 0,0 0.384,0.2965 0.6102,-0.0238 0,0 0.3392,-0.0682 1.3581,-0.0452 0,0 1.1065,0.2967 1.8767,-0.3421 l 0.2481,0.0469 c 0,0 0.3165,0.5237 0.5448,0.3642 0,0 0.6777,-0.069 0.7914,0.0689 0,0 0.2268,0.3427 0.1116,1.2349 0,0 -0.1344,0.3879 0.5213,0.3879 0,0 0.7458,-0.1357 0.6564,0.5697 0,0 0.204,0.8003 -1.0404,0.6868 0,0 -0.1593,0.2291 -0.1373,0.3887 0,0 -0.022,2.6041 -0.0441,2.903 0,0 -0.0219,0.4087 0.5207,0.3879 0,0 0.7239,-0.0483 0.7458,0.6172 0,0 0.0903,0.8677 -0.9494,0.7067 0,0 -0.3171,0.0474 -0.3633,0.2522 l -0.0441,1.1423 c 0,0 0.0228,0.5717 -0.6123,0.4353 -0.0903,0 -3.5269,0.0676 -3.8222,-0.0222 0,0 -0.1578,-0.023 -0.2025,0.0667 z" />
    <path
       id="path125"
       fill="#889caa"
       d="m 24.581,27.4881 c 0,0 -0.2489,0.8017 -1.3559,-0.0223 l -3.801,-0.0928 c 0,0 -0.4977,0.1618 -0.5654,-0.3642 0,0 0.0912,-1.0508 0.0449,-1.1428 0,0 0.0228,-0.2967 -0.4766,-0.2967 0,0 -0.7679,0.0912 -0.7907,-0.5956 0,0 -0.1342,-0.7312 0.9281,-0.7069 0,0 0.3392,0.1594 0.362,-0.2758 0,0 -0.0447,-2.972 -0.0228,-3.199 0,0 0.091,-0.273 -0.4303,-0.3197 0,0 -0.7459,0.1595 -0.837,-0.3418 0,0 -0.0447,-0.7543 0.4538,-0.801 0,0 0.6102,0.0467 0.7231,-0.1143 0,0 0.1367,0.0904 0.1132,-0.4554 l 0.0235,-0.9391 c 0,0 0.0653,-0.2507 0.4508,-0.2261 0,0 0.7017,0.0452 0.7935,-0.0246 0,0 0.1565,-0.2046 0.2027,-0.2975 0,0 0.3627,-0.0221 0.4296,0.0697 0,0 0.5433,0.3658 2.6018,0.2278 0,0 0.3173,0 0.3833,0.0921 0,0 0.3861,0.2965 0.6116,-0.0223 0,0 0.3393,-0.0698 1.3568,-0.0452 0,0 1.11,0.2958 1.8773,-0.3442 l 0.2496,0.046 c 0,0 0.3164,0.5243 0.5426,0.3657 0,0 0.6791,-0.0675 0.7914,0.0689 0,0 0.2255,0.3405 0.1131,1.2349 0,0 -0.1342,0.3872 0.5213,0.3872 0,0 0.7475,-0.1379 0.6555,0.5704 0,0 0.2034,0.8003 -1.0395,0.6867 0,0 -0.1593,0.2285 -0.1373,0.3888 0,0 -0.022,2.6041 -0.0448,2.9029 0,0 -0.0221,0.4118 0.5199,0.3879 0,0 0.7247,-0.0473 0.7488,0.6164 0,0 0.0896,0.8685 -0.9522,0.7076 0,0 -0.3165,0.0467 -0.3635,0.2522 l -0.0424,1.1428 c 0,0 0.0211,0.5712 -0.611,0.4333 -0.0903,0 -3.5286,0.0705 -3.8236,-0.0207 0,0 -0.1601,-0.023 -0.2042,0.0667 z" />
    <path
       id="path127"
       stroke-width="0.0133333"
       stroke="#889caa"
       d="m 24.5807,27.488 c 0,0 -0.2489,0.8018 -1.3559,-0.0222 L 19.423,27.3731 c 0,0 -0.4977,0.1616 -0.5652,-0.3649 0,0 0.0918,-1.051 0.0447,-1.143 0,0 0.0228,-0.2967 -0.4758,-0.2967 0,0 -0.7686,0.0921 -0.7913,-0.5949 0,0 -0.1344,-0.7313 0.9279,-0.7076 0,0 0.3392,0.1596 0.362,-0.275 0,0 -0.0447,-2.9721 -0.0228,-3.1998 0,0 0.0918,-0.2736 -0.4295,-0.3197 0,0 -0.7467,0.1596 -0.8376,-0.3418 0,0 -0.0441,-0.7552 0.4536,-0.801 0,0 0.6101,0.0458 0.7234,-0.1143 0,0 0.1372,0.0904 0.1129,-0.4562 l 0.0243,-0.939 c 0,0 0.0645,-0.2506 0.4515,-0.2261 0,0 0.701,0.0452 0.7922,-0.0245 0,0 0.1565,-0.204 0.2033,-0.2969 0,0 0.3621,-0.0228 0.4296,0.0693 0,0 0.5426,0.3655 2.6018,0.2276 0,0 0.3173,0 0.3833,0.0919 0,0 0.3861,0.2967 0.6116,-0.0222 0,0 0.3393,-0.0697 1.3568,-0.0452 0,0 1.11,0.2958 1.8779,-0.3442 l 0.2498,0.0452 c 0,0 0.3163,0.5251 0.5418,0.3664 0,0 0.6791,-0.0674 0.7914,0.0682 0,0 0.2261,0.342 0.1139,1.2349 0,0 -0.135,0.3888 0.5212,0.3888 0,0 0.7468,-0.138 0.6548,0.5696 0,0 0.2034,0.801 -1.0395,0.6868 0,0 -0.1586,0.2285 -0.1365,0.3894 0,0 -0.0221,2.6041 -0.0449,2.9023 0,0 -0.0228,0.4116 0.5198,0.3894 0,0 0.7254,-0.0476 0.7488,0.6155 0,0 0.089,0.8685 -0.9522,0.7076 0,0 -0.3164,0.0476 -0.3633,0.2522 l -0.0432,1.143 c 0,0 0.0211,0.5719 -0.6102,0.4339 -0.0903,0 -3.5294,0.0698 -3.8244,-0.0215 0,0 -0.1601,-0.0223 -0.2042,0.0674 z" />
    <path
       id="path129"
       fill="#ffffff"
       d="m 20.3053,18.072 c 0,0 0.0447,0.4577 0.0447,0.5734 0,0.1134 -0.0667,6.6034 -0.0667,6.6034 0,0 0.0667,0.5028 -0.3613,0.7549 0,0 -0.1146,0.0446 -0.1359,-0.2751 l 0.0443,-6.854 c 0,0 0.0454,-0.8479 0.4749,-0.8026 z" />
    <path
       id="path131"
       stroke-width="0.016"
       stroke="#889caa"
       d="m 20.3065,18.0713 c 0,0 0.0441,0.4576 0.0441,0.5733 0,0.1141 -0.0661,6.6049 -0.0661,6.6049 0,0 0.0661,0.5028 -0.362,0.7541 0,0 -0.1146,0.0454 -0.1373,-0.2743 l 0.0455,-6.8555 c 0,0 0.0448,-0.8479 0.4758,-0.8025 z" />
    <path
       id="path133"
       fill="#ffffff"
       d="m 19.5602,26.0716 c 0,0 0.0449,-6.4446 0.0236,-6.5588 -0.0236,-0.1127 0.0213,0.0934 0.0213,0.0934 0,0 -0.0677,-1.1215 0.2268,-1.5798 0,0 -0.0918,-0.3864 -0.6116,0.0927 l -0.0228,0.9359 c 0,0 0,0.5267 -0.4743,0.5036 0,0 -0.5432,-0.0236 -0.7922,0.2279 0,0 -0.1357,0.5034 0.384,0.413 0,0 0.815,0 0.8605,0.3404 l -0.0455,3.452 c 0,0 0.1812,0.574 -0.4515,0.574 0,0 -0.7716,-0.0489 -0.7475,0.4311 0,0 0.1593,0.4107 0.815,0.275 0,0 0.4743,0.0897 0.4515,0.5488 v 0.8679 c 0,0 -0.0456,0.3449 0.4076,0.3664 h 3.529 c 0,0 0.18,0.0222 0.18,-0.2063 0,0 -0.022,-0.1823 -0.293,-0.1823 l -2.9404,-0.046 c 0,0 -0.4756,0.1609 -0.5205,-0.5489 z" />
    <path
       id="path135"
       fill="#ffffff"
       d="m 20.2386,26.0606 c 0,0 -0.0909,0.3196 0.2481,0.2528 h 2.3305 l 0.632,0.1387 c 0,0 0.6557,-0.1616 0,-0.5266 0,0 -2.0806,0.0208 -2.2612,-0.0237 0,0 -0.4302,-0.1136 -0.5228,-0.1364 0,0 -0.2239,-0.0912 -0.4266,0.2952 z" />
    <path
       id="path137"
       stroke-width="0.016"
       stroke="#889caa"
       d="m 20.2386,26.0609 c 0,0 -0.0909,0.3203 0.2481,0.2536 h 2.3311 l 0.6323,0.1386 c 0,0 0.6562,-0.1623 0,-0.528 0,0 -2.0808,0.0207 -2.2623,-0.023 0,0 -0.43,-0.1142 -0.5218,-0.1372 0,0 -0.2247,-0.0913 -0.4274,0.296 z" />
    <path
       id="path139"
       fill="#ffffff"
       d="m 24.1055,26.3808 c 0,0 -0.4295,0 -0.4074,0.5725 0,0 0.0454,0.4324 0.4977,0.4324 0,0 0.4059,-0.0673 0.3627,-0.5243 0,0 -0.2496,-0.5712 -0.453,-0.4806 z" />
    <path
       id="path141"
       fill="#ffffff"
       d="m 24.4228,26.1532 c 0,0 0.2034,-0.2276 0.3399,-0.2276 0,0 2.2621,0.2046 2.6439,-0.0691 0,0 0.3414,-0.0682 0.4324,0 0,0 0.3385,0.2737 0.3385,0.434 0,0 -0.0221,0.2068 -0.4295,0.0897 0,0 -2.5564,0.0252 -2.6923,0.0252 0,0 -0.7025,0.1587 -0.6329,-0.2522 z" />
    <path
       id="path143"
       stroke-width="0.016"
       stroke="#889caa"
       d="m 24.4219,26.1536 c 0,0 0.2033,-0.2285 0.3399,-0.2285 0,0 2.2627,0.2048 2.6453,-0.069 0,0 0.3413,-0.0682 0.4324,0 0,0 0.3384,0.2738 0.3384,0.4354 0,0 -0.0219,0.207 -0.4295,0.0897 0,0 -2.5578,0.0252 -2.6936,0.0252 0,0 -0.7026,0.1588 -0.6329,-0.2528 z" />
    <path
       id="path145"
       fill="#ffffff"
       d="m 24.7168,26.8945 c 0,0 0,-0.1848 0.3171,-0.1848 l 3.1659,-0.0221 c 0,0 0.2952,0.1602 0.2952,-0.3873 0,0 0.1159,-2.4912 0.1262,-5.234 0.0036,-0.8166 0.0404,-1.6732 0.0118,-2.467 0,0 -0.0705,-0.3434 -0.1615,-0.4131 0,0 0,-0.3649 0.3853,-0.2277 0,0 0.3393,0.0231 0.249,0.5504 l 0.0234,0.7965 c 0,0 -0.0682,0.3449 0.5411,0.2523 0,0 0.6101,0.0926 0.6344,0.3195 0,0 0.1806,0.4591 -0.5419,0.4124 h -0.5227 c 0,0 -0.2253,0.1366 -0.1578,0.4118 l -0.0675,3.3145 c 0,0 -0.0456,0.5704 0.4977,0.5489 0,0 0.5646,-0.0237 0.6783,0.1596 0,0 0.387,0.571 -0.4515,0.5251 0,0 -0.5205,-0.0238 -0.6335,0.0689 0,0 -0.091,0.1134 -0.1587,1.1889 0,0 0.0462,0.6401 -0.4295,0.5697 0,0 -3.1451,0.0452 -3.4388,-0.0222 0,0 -0.3164,0.0926 -0.362,-0.1603 z" />
    <path
       id="path147"
       fill="#ffffff"
       d="m 20.6456,17.8646 -0.0683,7.3384 c 0,0 -0.022,0.3405 0.5434,0.4094 0,0 0.6555,0.0682 0.8127,0 0,0 0.4325,-0.0237 1.5388,0.023 0,0 0.2731,0.2767 0.2959,-0.0689 0,0 0.1791,-5.9396 0.0911,-7.1767 0,0 -0.0249,-0.5252 -0.4082,-0.5482 0,0 -1.7195,0.1403 -1.878,0 l -0.6791,-0.1809 c 0,0 -0.2717,0.0222 -0.2483,0.2039 z" />
    <path
       id="path149"
       fill="#ffffff"
       d="m 24.2185,18.2312 c 0,0 -0.0675,3.4511 -0.0449,3.5654 l -0.0447,2.9016 -0.0918,1.0064 c 0,0 0.1365,0.2053 0.2498,0.0689 0,0 0.7239,-0.1854 1.176,-0.1134 0,0 1.4494,0.1358 1.7422,-0.0942 0,0 0.2269,0.1142 0.2931,-0.2515 0,0 0.0894,-6.3971 0.0477,-6.5113 0,0 0.0873,-0.9168 0.0417,-1.0058 0,0 -0.0198,-0.2055 -0.4052,-0.0237 0,0 0.044,0.184 -2.1035,0.1127 0,0 -0.8141,-0.0223 -0.8604,0.3449 z" />
    <path
       id="path151"
       fill="#ffffff"
       d="m 27.8169,18.1412 -0.022,7.2204 c 0,0 0.1806,0.6422 0.4743,0.5749 0,0 0.0441,-0.1388 0.066,-0.3673 l 0.0918,-6.8799 c 0,0 -0.2277,-1.0948 -0.6101,-0.5481 z" />
    <path
       id="path153"
       stroke-width="0.016"
       stroke="#889caa"
       d="m 27.8169,18.1406 -0.022,7.2219 c 0,0 0.1813,0.6424 0.475,0.5749 0,0 0.0449,-0.1388 0.0668,-0.3672 l 0.091,-6.8814 c 0,0 -0.2275,-1.0948 -0.6108,-0.5482 z" />
    <path
       id="path155"
       fill="#889caa"
       d="m 25.0395,20.3027 c -0.0675,-0.1825 0.3846,-0.2055 0.3846,-0.2055 l 0.227,0.0452 c 0.1586,-0.0222 0.3171,0.0467 0.3171,0.0467 0.158,0.2508 -0.1137,0.3872 -0.1137,0.3872 l -0.0903,0.2982 c -0.0235,0.2522 0,2.4232 0,2.4232 0.0455,0.1127 0.2261,0.3175 0.2261,0.3175 0,0.2068 -0.2496,0.1616 -0.2496,0.1616 l -0.655,0.023 c -0.204,-0.023 -0.1365,-0.2523 -0.1365,-0.2523 0.2261,-0.1141 0.2945,-0.5265 0.2945,-0.5265 v -2.2614 z" />
    <path
       id="path157"
       fill="#889caa"
       d="m 21.9852,22.4283 -0.0447,0.7083 0.2019,0.342 c 0.1373,0.1824 -0.0896,0.3212 -0.0896,0.3212 l -0.7239,-0.0684 c -0.1344,-0.0704 0,-0.2982 0,-0.2982 0.1814,-0.1125 0.204,-0.4115 0.204,-0.4115 l -0.0226,-1.3254 0.0226,-0.9597 c 0,-0.1151 -0.1806,-0.319 -0.1806,-0.319 -0.1578,-0.023 -0.113,-0.2285 -0.113,-0.2285 0.0449,-0.1149 0.428,-0.0467 0.428,-0.0467 h 0.9515 c 0.9053,0.2975 0.7695,0.9604 0.7695,0.9604 0.0683,0.6617 -0.633,0.9376 -0.633,0.9376 l -0.0469,0.3657 0.6571,1.0495 c 0.113,0.0919 0.0911,0.1846 0.0911,0.1846 -0.0911,0.2515 -0.4538,0 -0.4538,0 l -0.8134,-1.2808 c -0.0683,-0.092 -0.2042,0.0689 -0.2042,0.0689 z m 0.0228,-1.8068 c 0.022,0.5043 0.022,1.1898 0.022,1.1898 0.431,0.3433 0.6784,-0.138 0.6784,-0.138 0.5646,-0.5475 0,-1.0518 -0.0896,-1.1875 -0.0918,-0.138 -0.5439,-0.0237 -0.5439,-0.0237 z" />
    <path
       id="path159"
       fill="#889caa"
       d="m 17.2732,31.3079 c 0,0 0.1586,-0.0675 0.2034,-0.1802 0,0 0.4757,-0.0469 0.5424,-0.1149 l 1.4941,0.1149 c 0,0 1.4699,0.1127 2.1035,-0.3464 0,0 0.2276,0 0.3861,0.0697 0,0 0.315,0.0697 0.4053,0.2048 l 0.8605,-0.0231 c 0,0 0.4977,0.1617 0.4515,0.482 v 0.4103 c 0,0 -0.091,0.8233 0.1352,0.87 h 0.6577 c 0,0 0.5434,0.2508 0.4751,0.5703 0,0 0.0228,0.4555 -0.4515,0.5482 0,0 -0.4773,0.1364 -0.6337,0.1149 0,0 -0.1593,0.2048 -0.1828,0.4561 l -0.066,2.9944 c 0,0 -0.0462,0.3197 0.4295,0.2743 0,0 0.6996,-0.0689 0.9045,0.3212 0,0 0.1812,0.6616 -0.1806,0.7758 l -0.2709,0.1357 -0.5897,0.0951 c 0,0 -0.2472,0.0207 -0.2709,0.4546 v 0.7987 c 0,0 0.0237,0.5505 -0.4074,0.5505 l -0.6336,0.0459 c 0,0 -0.1579,0.135 -0.4742,0.0438 0,0 -3.8465,0.0704 -3.9824,0.0239 l -0.4528,0.0925 c 0,0 -0.4972,0.457 -0.9046,0.1127 l -0.3165,-0.2514 c 0,0 -0.2268,0.0462 -0.3156,0.0223 -0.091,-0.0223 -4.2539,0.0467 -4.2539,0.0467 0,0 -0.8826,0.0927 -0.9494,-0.2061 0,0 -0.1129,-1.1646 -0.0682,-1.304 0,0 0,-0.3412 -0.2034,-0.3634 0,0 -0.88248,-0.046 -0.90526,-0.1387 0,0 -0.47576,-0.3411 -0.3399,-0.6833 0,0 0.15931,-0.4589 0.63356,-0.5043 0,0 0.7239,0.1158 0.7239,-0.0904 0,0 0.0464,-0.1372 0.0464,-0.3649 0,0 0.0447,-2.7213 0.0219,-2.9037 0,0 0.0675,-0.3428 -0.2268,-0.3428 0,0 -0.3164,0.0906 -0.5192,-0.0458 0,0 -0.54324,0.023 -0.65632,-0.4118 0,0 -0.09096,-0.2736 0.04407,-0.5043 0,0 0.24977,-0.5021 0.97365,-0.3414 0,0 0.4074,0.1151 0.4521,-0.1809 l -0.0212,-1.0992 c 0,0 -0.0918,-0.2958 0.4742,-0.4554 0,0 0.7239,0.2048 0.9494,-0.1601 0,0 0.2496,-0.5045 0.4508,-0.1616 0,0 0.4317,0.4124 1.6079,0.3686 0,0 2.0366,-0.1617 2.0813,-0.0719 0,0 0.4979,0.0719 0.6329,0.2298 z" />
    <path
       id="path161"
       stroke-width="0.0133333"
       stroke="#889caa"
       d="m 17.274,31.2793 c 0,0 0.157,-0.0667 0.2034,-0.1809 0,0 0.4749,-0.0467 0.5424,-0.1151 l 1.4935,0.1151 c 0,0 1.4705,0.1142 2.1041,-0.3449 0,0 0.2276,0 0.3861,0.0697 0,0 0.3158,0.0689 0.4046,0.2039 L 23.27,31.0048 c 0,0 0.497,0.1618 0.4508,0.4813 v 0.4111 c 0,0 -0.0903,0.8232 0.1359,0.8685 h 0.657 c 0,0 0.5426,0.2522 0.4758,0.5719 0,0 0.0227,0.4554 -0.4522,0.5481 0,0 -0.4764,0.1365 -0.6329,0.1141 0,0 -0.1593,0.2055 -0.1836,0.457 l -0.0668,2.995 c 0,0 -0.0454,0.3181 0.4295,0.2736 0,0 0.7004,-0.0673 0.906,0.3204 0,0 0.1814,0.6624 -0.1806,0.7773 l -0.2716,0.1366 -0.5897,0.0927 c 0,0 -0.2481,0.0222 -0.27,0.4546 v 0.8019 c 0,0 0.0219,0.548 -0.4076,0.548 l -0.6336,0.046 c 0,0 -0.1586,0.1366 -0.4749,0.0453 0,0 -3.8465,0.0689 -3.9824,0.0215 l -0.4536,0.0926 c 0,0 -0.4964,0.4576 -0.9038,0.1127 l -0.3172,-0.2515 c 0,0 -0.2261,0.0462 -0.3156,0.0247 -0.0911,-0.0247 -4.2532,0.0459 -4.2532,0.0459 0,0 -0.8832,0.0921 -0.9507,-0.2061 0,0 -0.1124,-1.1661 -0.0677,-1.304 0,0 0,-0.3412 -0.2041,-0.3642 0,0 -0.88164,-0.0452 -0.90509,-0.1373 0,0 -0.47509,-0.3432 -0.3394,-0.6852 0,0 0.15931,-0.4583 0.63439,-0.5045 0,0 0.7232,0.1174 0.7232,-0.0912 0,0 0.0463,-0.1364 0.0463,-0.3634 0,0 0.0447,-2.7212 0.0227,-2.9038 0,0 0.0675,-0.344 -0.2276,-0.344 0,0 -0.3163,0.0912 -0.5199,-0.0446 0,0 -0.5424,0.0224 -0.65547,-0.4115 0,0 -0.0918,-0.2737 0.04473,-0.5037 0,0 0.24827,-0.503 0.97284,-0.3427 0,0 0.4074,0.1157 0.4529,-0.1809 l -0.0227,-1.0986 c 0,0 -0.091,-0.2958 0.4751,-0.4567 0,0 0.7238,0.2061 0.95,-0.1596 0,0 0.2481,-0.5035 0.4508,-0.1623 0,0 0.4317,0.4124 1.6071,0.3686 0,0 2.0374,-0.1618 2.0814,-0.0713 0,0 0.4986,0.0713 0.6336,0.2307 z" />
    <path
       id="path163"
       fill="#ffffff"
       d="m 17.8621,40.2895 c 0,0 0.2724,-0.1387 0.4538,-0.0912 0.1813,0.0454 2.8273,-0.0223 2.8273,-0.0223 0,0 1.1534,0.0905 1.3355,-0.0712 l 0.2694,-0.0904 c 0,0 0.1137,-0.1364 0.1137,-0.3182 0,-0.1846 0.0228,-0.8018 0.0228,-0.8018 l 0.069,-0.2268 c 0,0 -0.0234,-0.2287 0,-6.3321 0,0 0.0888,-0.4776 -0.2055,-0.7765 0,0 0,-0.1811 0.0903,-0.1594 0.0918,0.0245 0.0462,0.0245 0.0462,0.0245 0,0 0.4068,-0.1166 0.4736,0.0435 0,0 0.1828,0.5467 0.0235,0.8679 0,0 -0.0456,0.6638 0.2966,0.6638 0,0 0.1336,0.138 0.4053,0.0683 0,0 0.588,0.0697 0.588,0.2507 0,0 0,0.4131 -0.4074,0.3442 l -0.5439,0.0443 c 0,0 -0.3621,0.0706 -0.3158,0.5032 0.0462,0.4344 -0.0228,3.5428 -0.0228,3.5428 0,0 0,0.3673 0.5669,0.3443 0,0 0.7004,-0.0237 0.7004,0.1809 0,0 0.1804,0.4569 -0.3165,0.4808 0,0 -0.9508,-0.0239 -0.8818,0.2498 0,0 -0.069,0.6416 -0.1146,0.7543 0,0 0.0926,0.5266 -0.0226,0.6187 0,0 -0.0669,0.2958 -0.677,0.2507 0,0 -3.8904,-0.0224 -4.502,0.023 0,0 -0.3627,-0.0454 -0.2724,-0.3658 z" />
    <path
       id="path165"
       fill="#ffffff"
       d="m 17.1622,39.8556 c 0,0 0.384,0.0675 0.384,0.4339 0,0.3649 0.0228,0.571 -0.2047,0.6164 -0.2255,0.0458 -0.4736,-0.0215 -0.5405,-0.3184 -0.0696,-0.298 0.0433,-0.6644 0.3612,-0.7319 z" />
    <path
       id="path167"
       fill="#ffffff"
       d="m 17.614,39.6729 c 0,0 0.4067,-0.276 0.5652,-0.2283 0,0 2.058,0.1356 2.6931,0.0236 0.6327,-0.1149 0.2481,-0.0236 0.2481,-0.0236 0,0 0.5434,0 0.7004,-0.2071 0,0 0.1593,-0.0438 0.2496,0.1158 l 0.3378,0.367 c 0,0 0.0256,0.2263 -0.3606,0.2033 0,0 -3.6885,0 -3.8001,0.023 0,0 -0.7011,0.1127 -0.6335,-0.2737 z" />
    <path
       id="path169"
       stroke-width="0.016"
       stroke="#889caa"
       d="m 17.613,39.6731 c 0,0 0.4067,-0.276 0.5652,-0.2291 0,0 2.0595,0.1364 2.6938,0.0243 0.6337,-0.1155 0.2481,-0.0243 0.2481,-0.0243 0,0 0.5441,0 0.7012,-0.2078 0,0 0.1587,-0.0429 0.2496,0.1166 l 0.3378,0.3677 c 0,0 0.0249,0.2271 -0.3605,0.2033 0,0 -3.6886,0 -3.8016,0.0238 0,0 -0.7011,0.1128 -0.6336,-0.2745 z" />
    <path
       id="path171"
       fill="#ffffff"
       d="m 12.2523,31.5593 c 0,0 0.1587,0 0.1357,0.2745 l -0.046,6.9014 c 0,0 0.069,0.4583 -0.3158,0.7543 0,0 -0.2049,0.2507 -0.2049,-0.1364 l 0.0924,-7.0395 c 0,0 0.0215,-0.526 0.3386,-0.7543 z" />
    <path
       id="path173"
       stroke-width="0.016"
       stroke="#889caa"
       d="m 12.2528,31.5588 c 0,0 0.1587,0 0.1372,0.2744 l -0.0475,6.903 c 0,0 0.069,0.4583 -0.3165,0.7543 0,0 -0.2057,0.2507 -0.2057,-0.1366 l 0.0926,-7.0401 c 0,0 0.022,-0.5267 0.3399,-0.755 z" />
    <path
       id="path175"
       fill="#ffffff"
       d="m 11.8901,31.6059 c 0,0 -0.2718,0.5037 -0.249,0.6187 l -0.0228,1.5293 c 0,0 -0.0227,0.9828 0,1.0977 0.0228,0.1135 -0.0227,2.9936 -0.0227,2.9936 0,0 -0.0227,0.5472 0,0.7312 v 1.2335 c 0,0 -0.0454,0.5495 0.3613,0.4101 0,0 3.9822,-0.0904 4.2318,-0.0208 0,0 0.3605,0.0677 0.2268,0.2508 0,0 0,0.1611 -0.2511,0.1142 0,0 -1.8772,0.1816 -3.5733,0.1143 0,0 -1.1312,0.0673 -1.2003,-0.0674 0,0 -0.1799,-0.0232 -0.1799,-0.6869 0,0 0,-0.6156 -0.044,-0.73 0,0 0.044,-0.324 -0.5212,-0.39 0,0 -0.79156,0.1379 -0.81434,-0.3419 0,0 0.11241,-0.3427 0.88254,-0.2982 0,0 0.5654,0.0919 0.453,-0.3664 l 0.0668,-3.3801 c 0,0 0.0697,-0.5968 -0.3165,-0.6207 0,0 -0.3605,-0.0185 -0.4757,0.0239 0,0 -0.65554,0 -0.61014,-0.3858 0,0 0.22614,-0.4124 0.88254,-0.3205 0,0 0.497,0.0907 0.5198,-0.4791 0,0 -0.0228,-1.1666 0.2481,-1.2111 0,0 0.5669,0.0207 0.4083,0.1816 z" />
    <path
       id="path177"
       fill="#ffffff"
       d="m 12.5678,39.1692 c 0,0 0.3172,0.3412 0.8385,0.3212 l 3.0739,0.0445 c 0,0 0.3416,0.0244 0.3201,0.2053 0,0 -0.0484,0.2738 -0.4536,0.1826 l -3.7107,-0.0452 -0.4081,0.025 c 0,0 -0.2717,-0.0473 0.16,-0.5725 z" />
    <path
       id="path179"
       stroke-width="0.016"
       stroke="#889caa"
       d="m 12.5675,39.1693 c 0,0 0.3173,0.3419 0.8393,0.321 l 3.0747,0.0454 c 0,0 0.3406,0.0237 0.3201,0.2053 0,0 -0.0477,0.2745 -0.4529,0.1841 l -3.7128,-0.0454 -0.4083,0.0237 c 0,0 -0.2709,-0.0465 0.16,-0.5732 z" />
    <path
       id="path181"
       fill="#ffffff"
       d="m 22.0703,38.8709 c 0,0 0.2716,0.5267 0.4074,0.5986 0,0 0.249,0.2945 0.1815,-0.2307 l 0.0447,-6.5825 c 0,0 -0.0684,-0.2292 0,-0.5934 l -0.2709,-0.503 c 0,0 -0.2952,-0.2283 -0.2952,0.1366 l -0.0447,7.0171 z" />
    <path
       id="path183"
       stroke-width="0.016"
       stroke="#889caa"
       d="m 22.0693,38.8717 c 0,0 0.2724,0.5258 0.4089,0.5986 0,0 0.249,0.2951 0.1815,-0.2314 l 0.0447,-6.5842 c 0,0 -0.0683,-0.2276 0,-0.5918 l -0.2715,-0.5035 c 0,0 -0.296,-0.2278 -0.296,0.1371 l -0.0448,7.0178 z" />
    <path
       id="path185"
       fill="#ffffff"
       d="m 17.0485,35.7416 c 0,0 0.0227,0.5467 -0.0463,1.0712 -0.0367,0.2899 0.0917,1.625 -0.0228,2.3096 0,0 -0.0206,0.2291 -0.4978,0.0245 0,0 -2.8949,0.0674 -2.9851,-0.0245 0,0 -0.7914,0.0245 -0.8598,-0.3879 0,0 0.1131,-3.1308 0.0456,-3.2472 0,0 -0.0456,-1.7134 0,-1.8728 0,0 0.0675,-1.5768 0.0228,-1.7594 0,0 0.0227,-0.3657 -0.0456,-0.5495 0,0 0,-0.2285 0.3855,-0.0919 0,0 0.1337,0.2521 0.881,0.1401 0,0 0.5439,0.0905 1.0646,0.0215 0,0 1.1526,-0.0912 1.4477,0 0,0 0.453,-0.0912 0.5865,0.4131 l -0.0226,1.4158 0.1351,0.457 0.1593,-0.1136 0.0668,-0.3434 0.0228,-1.5085 c 0,0 0.0903,-0.2752 0.4536,-0.3204 0,0 0.5654,-0.0697 0.6572,-0.0215 0.0903,0.0438 1.3098,0.112 1.6512,0.0438 0.3384,-0.0683 0.4052,0.2283 1.4251,-0.296 0,0 0.2715,0.023 0.2715,0.204 0,0 -0.0924,1.9455 0,2.3089 0,0 0,3.5647 -0.0705,3.8162 l 0.0463,1.1427 c 0,0 0.0449,0.5031 -0.7452,0.549 0,0 0.4979,0.0688 -2.6261,-0.0224 0,0 -0.497,-0.0235 -1.0397,0.2271 0,0 -0.113,-0.0223 -0.113,-0.319 0,0 0.0896,-1.0731 0,-2.1265 l -0.0439,-1.165 z" />
    <path
       id="path187"
       fill="#889caa"
       d="m 15.0115,34.1202 c 0,0 0.0684,1.6905 0,1.9188 l -0.0212,0.3666 c 0,0 0.0896,0.2498 0.2254,0.3425 0,0 0.1138,0.3189 -0.1586,0.2967 0,0 -0.5646,-0.046 -0.7004,-0.0244 0,0 -0.318,0 0,-0.4089 0,0 0.1131,-0.1624 0.0896,-0.5725 0,0 0,-1.9188 0.0462,-2.0322 0,0 0.0448,-0.253 -0.1139,-0.3219 l -0.2724,0.0237 -0.3377,0.3197 c 0,0 -0.069,0.3442 -0.2275,-0.0215 v -0.1847 l 0.2049,-0.5481 0.1358,-0.0239 c 0,0 0.2026,0.1374 0.3832,0.1848 h 1.0646 l 0.384,-0.1848 c 0,0 0.1578,0.0239 0.1145,0.2293 0,0 0.0661,0.5274 -0.2276,0.5942 0,0 -0.1813,-0.0668 -0.2709,-0.3198 0,0 -0.2943,-0.1586 -0.318,0.3664 z" />
    <path
       id="path189"
       fill="#889caa"
       d="m 20.0108,33.5026 c 0,0 -0.8582,-0.0691 -0.8795,0.8676 0,0 -0.0933,0.6416 0.8582,1.0534 0,0 0.7019,0.3412 0.6549,0.7751 0,0 -0.0903,0.7773 -0.837,0.3892 0,0 -0.3612,-0.1839 -0.337,-0.3892 0,0 -0.1151,-0.2522 -0.2503,-0.2056 0,0 -0.1593,0.0447 -0.0888,0.7996 0,0 0,0.2974 0.3391,0 l 0.1784,0.0467 c 0,0 0.6116,0.5028 1.1308,-0.1155 0,0 0.5667,-0.5252 0.1585,-1.1646 0,0 -0.2937,-0.4554 -0.8134,-0.6846 0,0 -0.4979,-0.2306 -0.6101,-0.6187 0,0 0.1585,-0.6868 0.7679,-0.321 0,0 0.2269,0.2745 0.3619,0.321 0,0 0.1814,0 0.1352,-0.4131 l -0.0428,-0.3403 c 0,0 -0.0454,-0.2546 -0.3633,0 0,0 -0.2943,0.1127 -0.3627,0 z" />
    <path
       id="path191"
       fill="#889caa"
       d="m 17.2511,33.0218 c 0.1578,0.1164 0.1806,0.3442 0.1806,0.3442 0.4523,1.2104 0.8378,2.9718 0.8378,2.9718 0.1122,0.2263 0.3164,0.4103 0.3164,0.4103 0.3847,0.1364 0,0.25 0,0.25 -0.1586,0.0697 -0.6776,-0.0209 -0.6776,-0.0209 -0.2732,-0.0489 -0.1608,-0.1379 -0.1608,-0.1379 0.1144,-0.1142 0.0234,-0.5727 0.0234,-0.5727 -0.0234,-0.1809 -0.2253,-0.4789 -0.2253,-0.4789 -0.0903,-0.0462 -0.2489,0.1594 -0.2489,0.1594 0,0 -0.2481,0.0919 -0.2724,0 -0.0228,-0.0929 -0.1806,-0.1794 -0.1806,-0.1794 -0.2717,0 -0.384,0.6814 -0.384,0.6814 0.1578,0.572 0,0.4792 0,0.4792 -0.135,0.1848 -0.566,0.0489 -0.566,0.0489 -0.2034,-0.0489 -0.0662,-0.2083 -0.0662,-0.2083 0.2474,-0.0438 0.3149,-0.3198 0.3149,-0.3198 0.1139,-0.1595 0.8363,-3.1298 0.8363,-3.1298 0.0699,-0.1381 0.1138,-0.4117 0.2724,-0.2975 z m -0.3603,1.5079 c -0.0237,0.1149 -0.183,0.755 -0.183,0.755 l 0.1359,0.2306 c 0,0 0.3627,0.0209 0.4977,0.0209 0.1344,0 0.1586,-0.1121 0.1586,-0.2287 0,-0.1132 -0.2489,-0.7986 -0.2489,-0.7986 l -0.1144,-0.1373 z" />
    <path
       id="path193"
       fill="#889caa"
       d="m 11.1233,27.4873 c 0,0 -0.2496,0.8017 -1.35815,-0.023 l -3.80028,-0.092 c 0,0 -0.49772,0.1617 -0.56606,-0.3648 0,0 0.09113,-1.0503 0.04407,-1.1423 0,0 0.02427,-0.2982 -0.47427,-0.2982 0,0 -0.76794,0.0934 -0.79006,-0.5925 0,0 -0.13652,-0.7337 0.92659,-0.7085 0,0 0.33774,0.1595 0.36201,-0.275 0,0 -0.04556,-2.9706 -0.02427,-3.2004 0,0 0.09245,-0.2715 -0.42804,-0.3184 0,0 -0.74749,0.1588 -0.83629,-0.344 0,0 -0.04623,-0.7528 0.45082,-0.7995 0,0 0.61096,0.0467 0.7247,-0.1114 0,0 0.13587,0.0884 0.11308,-0.4606 l 0.02279,-0.9359 c 0,0 0.06818,-0.2515 0.45065,-0.2285 0,0 0.70342,0.0452 0.79438,-0.023 0,0 0.15798,-0.2047 0.20121,-0.2976 0,0 0.36418,-0.0215 0.4317,0.0676 0,0 0.54178,0.3679 2.60264,0.23 0,0 0.31498,0 0.38328,0.092 0,0 0.384,0.2965 0.6102,-0.0238 0,0 0.3392,-0.0682 1.3581,-0.0452 0,0 1.1065,0.2967 1.8767,-0.3421 l 0.2481,0.0469 c 0,0 0.3165,0.5237 0.5448,0.3642 0,0 0.6777,-0.069 0.7914,0.0689 0,0 0.2268,0.3427 0.1116,1.2349 0,0 -0.1344,0.3879 0.5213,0.3879 0,0 0.7458,-0.1357 0.6564,0.5697 0,0 0.204,0.8003 -1.0404,0.6868 0,0 -0.1593,0.2291 -0.1373,0.3887 0,0 -0.022,2.6041 -0.0441,2.903 0,0 -0.0219,0.4087 0.5207,0.3879 0,0 0.7239,-0.0483 0.7458,0.6172 0,0 0.0903,0.8677 -0.9494,0.7067 0,0 -0.3171,0.0474 -0.3633,0.2522 l -0.0441,1.1423 c 0,0 0.0228,0.5717 -0.6123,0.4353 -0.0903,0 -3.5269,0.0676 -3.8222,-0.0222 0,0 -0.1578,-0.023 -0.2025,0.0667 z" />
    <path
       id="path195"
       stroke-width="0.0133333"
       stroke="#889caa"
       d="m 11.1229,27.4882 c 0,0 -0.2496,0.8019 -1.35813,-0.023 L 5.96382,27.3733 c 0,0 -0.49788,0.1616 -0.56606,-0.3655 0,0 0.09179,-1.0503 0.04473,-1.1424 0,0 0.02345,-0.2973 -0.4751,-0.2973 0,0 -0.76793,0.0934 -0.78989,-0.5927 0,0 -0.13586,-0.7343 0.92725,-0.7091 0,0 0.33774,0.1596 0.36119,-0.2744 0,0 -0.04557,-2.972 -0.02345,-3.2011 0,0 0.09246,-0.2723 -0.4287,-0.3184 0,0 -0.74749,0.159 -0.83629,-0.3447 0,0 -0.04622,-0.7529 0.45149,-0.7988 0,0 0.61013,0.0459 0.7247,-0.1127 0,0 0.13586,0.0897 0.11225,-0.4593 l 0.02361,-0.9368 c 0,0 0.06752,-0.2513 0.45066,-0.2276 0,0 0.70275,0.0445 0.79371,-0.0237 0,0 0.15864,-0.2039 0.20188,-0.2968 0,0 0.36335,-0.0222 0.43169,0.0675 0,0 0.54112,0.3672 2.60265,0.2293 0,0 0.31496,0 0.38326,0.0919 0,0 0.384,0.2967 0.6102,-0.0237 0,0 0.3399,-0.0682 1.3581,-0.0445 0,0 1.1073,0.2952 1.8768,-0.3427 l 0.2487,0.0467 c 0,0 0.3165,0.5236 0.5441,0.3642 0,0 0.6777,-0.0682 0.7929,0.0682 0,0 0.2254,0.3436 0.1109,1.235 0,0 -0.1352,0.3894 0.5205,0.3894 0,0 0.7474,-0.1371 0.6564,0.569 0,0 0.204,0.801 -1.0397,0.6867 0,0 -0.1599,0.2292 -0.1372,0.3894 0,0 -0.0227,2.6041 -0.044,2.9023 0,0 -0.0228,0.4101 0.5198,0.3894 0,0 0.7239,-0.049 0.7467,0.6171 0,0 0.0894,0.867 -0.9502,0.7061 0,0 -0.3163,0.0482 -0.3626,0.2521 l -0.0449,1.1424 c 0,0 0.0243,0.5725 -0.6114,0.4359 -0.0903,0 -3.5277,0.0669 -3.8231,-0.0228 0,0 -0.1578,-0.0224 -0.2025,0.0673 z" />
    <path
       id="path197"
       fill="#ffffff"
       d="m 6.84733,18.073 c 0,0 0.04557,0.4561 0.04557,0.5703 0,0.1143 -0.06901,6.6049 -0.06901,6.6049 0,0 0.06901,0.5043 -0.36186,0.7543 0,0 -0.11241,0.0467 -0.13586,-0.273 L 6.3724,18.8733 c 0,0 0.04473,-0.8464 0.47493,-0.8003 z" />
    <path
       id="path199"
       stroke-width="0.016"
       stroke="#889caa"
       d="m 6.84816,18.0728 c 0,0 0.0454,0.4561 0.0454,0.5704 0,0.1142 -0.06901,6.6055 -0.06901,6.6055 0,0 0.06901,0.5043 -0.36252,0.7558 0,0 -0.11241,0.0461 -0.13586,-0.2736 L 6.3709,18.8738 c 0,0 0.04557,-0.8463 0.47726,-0.801 z" />
    <path
       id="path201"
       fill="#ffffff"
       d="m 6.10077,26.0713 c 0,0 0.04406,-6.4446 0.02278,-6.5597 -0.02278,-0.1127 0.02128,0.0927 0.02128,0.0927 0,0 -0.06601,-1.1185 0.22749,-1.5768 0,0 -0.09096,-0.3887 -0.61146,0.0904 l -0.02062,0.9376 c 0,0 0,0.5258 -0.47642,0.5028 0,0 -0.54328,-0.0237 -0.79289,0.2293 0,0 -0.13519,0.502 0.38397,0.4116 0,0 0.81567,0 0.8604,0.3404 l -0.04473,3.4519 c 0,0 0.18126,0.5712 -0.45298,0.5712 0,0 -0.76877,-0.0439 -0.74666,0.4361 0,0 0.15848,0.4116 0.81567,0.2737 0,0 0.47426,0.0919 0.45364,0.5466 v 0.8707 c 0,0 -0.04772,0.3434 0.40459,0.3643 h 3.5299 c 0,0 0.18076,0.0228 0.18076,-0.2063 0,0 -0.02295,-0.1803 -0.29301,-0.1803 L 6.62276,26.6201 c 0,0 -0.47793,0.1603 -0.52199,-0.5488 z" />
    <path
       id="path203"
       fill="#ffffff"
       d="m 6.71195,26.1177 c 0,0 -0.08963,0.3212 0.24811,0.2506 h 2.33025 l 0.63358,0.1366 c 0,0 0.65781,-0.1596 0,-0.526 0,0 -2.08132,0.0245 -2.26274,-0.0215 0,0 -0.42871,-0.1141 -0.51967,-0.1373 0,0 -0.22682,-0.0903 -0.42953,0.2976 z" />
    <path
       id="path205"
       stroke-width="0.016"
       stroke="#889caa"
       d="m 6.71097,26.1173 c 0,0 -0.08963,0.3225 0.24811,0.2506 h 2.33109 l 0.6344,0.138 c 0,0 0.65773,-0.1595 0,-0.5265 0,0 -2.08231,0.0243 -2.26357,-0.0231 0,0 -0.42953,-0.1135 -0.5205,-0.1357 0,0 -0.22698,-0.0912 -0.42953,0.2967 z" />
    <path
       id="path207"
       fill="#ffffff"
       d="m 10.581,26.4394 c 0,0 -0.4309,0 -0.4083,0.5681 0,0 0.0456,0.4368 0.4971,0.4368 0,0 0.4076,-0.071 0.3635,-0.5258 0,0 -0.2498,-0.5725 -0.4523,-0.4791 z" />
    <path
       id="path209"
       fill="#ffffff"
       d="m 10.8963,26.2087 c 0,0 0.2027,-0.2285 0.3399,-0.2285 0,0 2.2614,0.2063 2.646,-0.0675 0,0 0.3406,-0.0682 0.4296,0 0,0 0.3392,0.2738 0.3392,0.4332 0,0 -0.0221,0.2077 -0.4282,0.0934 0,0 -2.5586,0.0215 -2.6929,0.0215 0,0 -0.702,0.1595 -0.6336,-0.2521 z" />
    <path
       id="path211"
       stroke-width="0.016"
       stroke="#889caa"
       d="m 10.8953,26.2079 c 0,0 0.2034,-0.2291 0.3399,-0.2291 0,0 2.2621,0.2069 2.6467,-0.0669 0,0 0.3414,-0.0689 0.4302,0 0,0 0.3393,0.2738 0.3393,0.4339 0,0 -0.022,0.2078 -0.4281,0.0928 0,0 -2.5586,0.0223 -2.6944,0.0223 0,0 -0.7019,0.1594 -0.6336,-0.253 z" />
    <path
       id="path213"
       fill="#ffffff"
       d="m 11.2588,26.894 c 0,0 0,-0.1818 0.3149,-0.1818 l 3.1696,-0.0237 c 0,0 0.2928,0.1579 0.2928,-0.3887 0,0 0.1161,-2.492 0.1264,-5.2349 0.0043,-0.8158 0.0396,-1.6724 0.0088,-2.4662 0,0 -0.0675,-0.3418 -0.1578,-0.4124 0,0 0,-0.3655 0.3861,-0.2269 0,0 0.3369,0.0216 0.2473,0.5466 l 0.0221,0.8003 c 0,0 -0.0675,0.3427 0.5433,0.2515 0,0 0.6101,0.0912 0.6321,0.3197 0,0 0.1829,0.4583 -0.5403,0.4116 h -0.5198 c 0,0 -0.2269,0.1366 -0.1593,0.4118 l -0.0676,3.313 c 0,0 -0.047,0.5712 0.4978,0.5503 0,0 0.5654,-0.0237 0.6769,0.1588 0,0 0.3862,0.5718 -0.4514,0.526 0,0 -0.5207,-0.0239 -0.6338,0.0673 0,0 -0.0895,0.1165 -0.1578,1.1891 0,0 0.0447,0.6401 -0.4302,0.571 0,0 -3.1446,0.0445 -3.4374,-0.023 0,0 -0.318,0.0921 -0.3627,-0.1594 z" />
    <path
       id="path215"
       fill="#ffffff"
       d="m 7.18529,17.8658 -0.06602,7.3369 c 0,0 -0.02278,0.3405 0.54244,0.4094 0,0 0.65719,0.069 0.81434,0 0,0 0.4287,-0.0222 1.53805,0.0238 0,0 0.2717,0.2729 0.2937,-0.0682 0,0 0.1814,-5.9433 0.0909,-7.1767 0,0 -0.0219,-0.5252 -0.40806,-0.5482 0,0 -1.71797,0.1366 -1.87661,0 L 7.43639,17.6596 c 0,0 -0.27306,0.0216 -0.2511,0.2062 z" />
    <path
       id="path217"
       stroke-width="0.016"
       stroke="#889caa"
       fill="#ffffff"
       d="m 14.3571,18.1403 -0.0221,7.2226 c 0,0 0.1814,0.6418 0.4766,0.5734 0,0 0.0447,-0.1379 0.0668,-0.3679 l 0.0918,-6.8799 c 0,0 -0.227,-1.0972 -0.6131,-0.5482 z" />
    <path
       id="path219"
       stroke-width="0.016"
       stroke="#889caa"
       d="m 14.3571,18.1403 -0.0221,7.2226 c 0,0 0.1814,0.6418 0.4766,0.5734 0,0 0.0447,-0.1379 0.0668,-0.3679 l 0.0918,-6.8799 c 0,0 -0.227,-1.0972 -0.6131,-0.5482 z" />
    <path
       id="path221"
       fill="#ffffff"
       d="m 10.7623,18.2015 c 0,0 -0.0682,3.4504 -0.0469,3.5662 l -0.0427,2.9029 -0.0916,1.0028 c 0,0 0.1343,0.2084 0.2481,0.0704 0,0 0.7247,-0.1818 1.1768,-0.1141 0,0 1.4486,0.1379 1.7416,-0.0914 0,0 0.2262,0.1136 0.2943,-0.2522 0,0 0.0897,-6.3979 0.0448,-6.5128 0,0 0.0911,-0.913 0.0449,-1.0034 0,0 -0.0228,-0.2078 -0.4053,-0.0261 0,0 0.0439,0.1847 -2.1043,0.1165 0,0 -0.8148,-0.0237 -0.8597,0.3412 z" />
    <path
       id="path223"
       fill="#889caa"
       d="m 10.0629,20.3155 -0.20466,0.4361 c 0,0 -0.49572,2.2155 -0.76661,2.6716 0,0 -0.04556,0.4585 -0.4302,0.0919 0,0 -0.88317,-2.8102 -0.92807,-2.9021 L 7.43902,20.4074 c 0,0 -0.17843,-0.2513 0.13652,-0.2737 l 0.83695,0.0224 c 0,0 0.2709,0.2276 -0.09029,0.482 0,0 0.0449,0.365 0.51983,1.7572 0,0 0.13503,0.5258 0.29367,0.1371 L 9.58868,20.9095 9.45282,20.4297 c 0,0 -0.13653,-0.2284 0.06835,-0.2506 0,0 0.47509,-0.0454 0.54173,0.1364 z" />
    <path
       id="path225"
       fill="#889caa"
       d="m 11.3765,20.6814 -0.0243,2.4225 -0.066,0.1825 c 0,0 -0.2268,0.296 -0.069,0.3197 0,0 -0.2019,0.1379 1.4471,0.1601 0,0 0.635,0.1135 0.4757,-0.709 0,0 -0.0675,-0.2968 -0.2951,0.138 0,0 -0.0676,0.364 -0.8802,0.2506 0,0 -0.1815,-0.1594 -0.1815,-0.3419 v -1.0064 c 0,0 -0.0241,-0.2524 0.3612,-0.2263 0,0 0.4296,0.273 0.4979,0.1572 0,0 0.1578,-0.3642 0,-0.5933 0,0 -0.2042,-0.0215 -0.2261,0.0697 0,0 -0.1359,0.2728 -0.5205,0.1127 0,0 -0.1806,-0.3649 -0.0677,-0.6624 0,0 -0.0448,-0.5717 0.34,-0.5251 0,0 0.4522,0.0905 0.4963,0.2293 0,0 0.113,0.2751 0.2276,-0.0452 l -0.1146,-0.3903 c 0,0 -0.066,-0.1602 -0.1799,-0.1142 0,0 -0.7694,0.1142 -0.8611,0.0215 l -0.6109,0.0697 c 0,0 -0.0895,0.2292 0.1829,0.3421 0,0 0.0682,0.0467 0.0682,0.1385 z" />
  </g>
</svg>
