<svg width="506" height="559" viewBox="0 0 506 559" fill="none" xmlns="http://www.w3.org/2000/svg">
<path d="M500.11 249.42C480.946 242.07 463.043 231.261 445.24 221.208C427.791 211.354 408.373 201.561 392.147 189.441C382.982 182.594 375.416 170.986 369.488 161.561C356.266 140.542 361.389 117.782 357.936 94.4726C354.972 74.4663 333.968 55.8193 326.169 37.4918C322.4 28.6348 320.154 17.4127 314.173 9.72336C311.703 6.5469 308.312 4.70803 306.176 1.50391" stroke="#80838D" stroke-width="3" stroke-linecap="round"/>
<path d="M360.159 109.467C321.652 97.4832 282.05 81.4589 242.087 74.5904C225.62 71.76 209.644 71.2845 193.881 77.5893C182.836 82.0076 175.542 93.8733 163.336 95.0279C125.257 98.63 87.6639 54.8558 60.593 33.9374C44.6065 21.5842 23.8352 3.50317 2.2793 3.50317" stroke="#80838D" stroke-width="3" stroke-linecap="round"/>
<path d="M176.221 79.4778C168.16 109.335 163.321 148.301 147.786 175.89C144.301 182.079 136.461 185.167 130.236 187.441C118.675 191.666 109.031 194.651 100.246 203.436" stroke="#80838D" stroke-width="3" stroke-linecap="round"/>
<path d="M454.127 363.382C438.98 352.968 421.728 344.71 405.477 336.391C387.498 327.188 366.166 313.859 345.719 309.845C324.321 305.644 297.551 314.359 277.409 320.508C239.588 332.053 202.835 350.998 162.67 352.941C131.87 354.432 96.5452 339.682 78.4759 313.399C72.4679 304.66 67.8378 294.986 60.2598 287.408" stroke="#80838D" stroke-width="3" stroke-linecap="round"/>
<path d="M276.187 285.408C246.59 251.917 202.573 228.15 182.219 187.441" stroke="#80838D" stroke-width="3" stroke-linecap="round"/>
<path d="M504.11 279.41C483.644 294.76 458.314 302.937 437.133 317.398C420.389 328.828 410.569 349.887 402.144 367.603C386.002 401.549 379.24 437.358 374.154 474.234C372.351 487.306 366.825 501.856 360.825 513.443C353.199 528.168 342.429 550.813 326.17 557.317" stroke="#80838D" stroke-width="3" stroke-linecap="round"/>
<path d="M382.15 397.371C355.293 427.89 323.772 457.478 291.292 481.898C274.79 494.304 254.007 493.58 234.2 492.894C214.937 492.227 189.511 489.987 172.221 481.342" stroke="#80838D" stroke-width="3" stroke-linecap="round"/>
</svg>
